<svg width="26" height="20" viewBox="0 0 26 20" fill="none" xmlns="http://www.w3.org/2000/svg">
<path d="M9.25396 0.0173033C10.5023 -0.0920423 11.499 0.308507 12.1063 1.45734C12.2354 1.7016 12.3351 1.95293 12.4471 2.20517C12.6759 2.71554 12.902 3.22705 13.1256 3.73972L15.5248 9.17543L18.1174 15.0138L18.7348 16.39C19.1313 17.2759 19.4321 17.9091 18.903 18.8386C18.638 19.3052 18.1956 19.6449 17.6764 19.7804C16.8769 19.9944 15.8689 19.6772 15.4133 18.9644C14.9564 18.2495 14.6735 17.3547 14.3173 16.5798C14.1729 16.2657 13.8745 15.6422 13.7912 15.3233C13.3557 15.3511 12.8181 15.3375 12.3729 15.3376L9.97244 15.3373L6.90742 15.3373C6.47661 15.3373 5.75036 15.3127 5.34577 15.3454C5.13139 15.5097 4.07111 18.507 3.61193 19.0821C3.27126 19.5047 2.77683 19.7748 2.23719 19.8332C0.743962 19.9934 -0.391461 18.6211 0.127716 17.1918C0.256265 16.8379 0.422042 16.5048 0.576414 16.1621L1.19181 14.7733L3.31616 9.96913L5.81817 4.3274C6.07227 3.74046 6.33083 3.15544 6.59381 2.57239C7.19348 1.22409 7.57876 0.179008 9.25396 0.0173033ZM6.86046 11.565C7.66873 11.521 8.76102 11.5527 9.58959 11.5537L11.3048 11.5519C11.5635 11.5517 11.9544 11.5395 12.2061 11.5559C11.9486 10.9082 9.56092 5.27229 9.51552 5.24326C9.3567 5.71867 9.15021 6.18323 8.95538 6.64572L8.12722 8.61554L7.37114 10.4214C7.2264 10.7657 7.04214 11.2368 6.86584 11.5554L6.86046 11.565Z" fill="#FFFCCC"/>
<path d="M23.2114 15.2151C24.5248 15.1075 25.6767 16.085 25.7844 17.3985C25.892 18.7119 24.9144 19.8639 23.601 19.9715C22.2876 20.0791 21.1356 19.1016 21.028 17.7881C20.9204 16.4747 21.8979 15.3227 23.2114 15.2151Z" fill="#FFFCCC"/>
</svg>
