<svg width="108" height="62" viewBox="0 0 108 62" fill="none" xmlns="http://www.w3.org/2000/svg">
<path d="M42.6205 28.1178C42.5452 28.4332 42.4634 28.7445 42.3737 29.0528C42.1407 29.8517 41.8605 30.6245 41.5357 31.3704C40.9455 32.7285 40.2095 33.9933 39.3509 35.1517C38.8979 35.7626 38.4122 36.3433 37.8957 36.8917C36.6425 38.2234 35.2103 39.3669 33.6487 40.2916C32.8719 40.753 32.0621 41.1593 31.2251 41.5081C27.5719 43.0346 23.4183 43.4577 19.2722 42.4682C17.5939 42.0677 16.02 41.4595 14.5692 40.6792C13.7082 40.2162 12.8906 39.6914 12.1222 39.1113C10.2072 37.6703 8.59081 35.8951 7.33882 33.891C6.3977 32.3876 5.66296 30.7544 5.16272 29.0404C4.24823 25.9139 4.11026 22.5149 4.92053 19.1196C5.7308 15.7243 7.55089 12.4655 9.94477 10.034C11.1879 8.77083 12.596 7.68634 14.125 6.8098C14.8746 6.37917 15.6523 5.99755 16.4541 5.67143C17.3087 5.32184 18.1887 5.03303 19.0907 4.80796C19.6264 4.67456 20.1678 4.5637 20.7165 4.47448C21.6347 4.32788 22.5694 4.24743 23.5139 4.23526C25.0797 4.21584 26.6744 4.38745 28.2668 4.76745C33.0767 5.9153 37.0376 8.76499 39.6604 12.5255C40.1859 13.2791 40.6575 14.0708 41.0733 14.8928C42.0921 16.9097 42.7625 19.1097 43.025 21.3977C43.1108 22.1434 43.1544 22.8989 43.152 23.6596C43.1478 25.1314 42.9754 26.6252 42.6193 28.1175L42.6205 28.1178Z" fill="#FF9D3B"/>
<path d="M7.50018 28.1113C7.34045 30.0212 7.28463 31.9595 7.3385 33.8917C6.39738 32.3884 5.66264 30.7552 5.1624 29.0411C5.18451 28.667 5.21278 28.2931 5.24431 27.9213C5.30341 27.2201 5.37686 26.5162 5.46342 25.8303C5.84166 22.7859 6.49419 19.7336 7.40143 16.7608C8.10004 14.4745 8.95417 12.2141 9.94535 10.0363C11.1884 8.77306 12.5966 7.68858 14.1256 6.81204C13.4225 8.0536 12.7628 9.33784 12.1619 10.6361C11.1447 12.829 10.2715 15.1121 9.56699 17.4231C8.69804 20.272 8.07258 23.1952 7.71 26.1114C7.62783 26.7685 7.55697 27.4407 7.50135 28.1116L7.50018 28.1113Z" fill="#3A3A3A"/>
<path d="M98.8671 52.82L91.2045 48.5048C91.1212 48.4575 91.0379 48.4103 90.9523 48.3625C90.9337 47.5284 90.7559 46.7147 90.4184 45.9712C89.227 43.3483 86.3025 41.5557 82.3954 41.055C78.9507 40.6136 75.4205 41.0461 72.185 42.3078C70.6311 42.9134 69.1614 43.7033 67.7401 44.4675C65.8523 45.4823 64.07 46.4402 62.1296 46.9872C57.9325 48.1711 53.0218 47.3101 48.6591 44.627C46.8009 43.4845 45.7736 42.1236 44.5822 40.5481C43.2474 38.7816 41.7372 36.7855 38.8025 34.7492C36.731 33.2547 34.5771 31.9546 32.3499 30.8521C35.3538 31.3426 38.4212 31.5149 41.5339 31.3671C41.8587 30.6211 42.1389 29.8483 42.3719 29.0494C37.1297 29.4104 32.0203 28.8243 27.1397 27.2951C23.1339 26.0406 19.2835 24.1403 15.6837 21.638C16.117 19.9004 16.6452 18.1718 17.2615 16.4754C20.7523 18.7675 24.4624 20.5361 28.3054 21.7381C29.2417 22.0312 30.1872 22.2917 31.1416 22.5194C35.03 23.4474 39.0526 23.8289 43.1525 23.6567C43.1549 22.896 43.1125 22.1408 43.0256 21.3949C38.1916 21.5934 33.4794 20.9851 28.9816 19.5771C25.1898 18.3898 21.5331 16.6216 18.1 14.3121C18.8981 12.3804 19.8136 10.488 20.8333 8.66523C23.8842 10.5066 27.0936 11.9604 30.3924 12.9927C31.3182 13.2833 32.2556 13.5406 33.203 13.7667C35.7675 14.3787 38.4018 14.7548 41.0736 14.8911C40.6589 14.0695 40.187 13.2789 39.6607 12.5239C36.7218 12.2666 33.8406 11.6997 31.0686 10.8317C27.9356 9.85015 24.8822 8.46718 21.9798 6.71224C22.4211 5.99409 22.8787 5.29102 23.3462 4.60898L23.4659 4.43602L23.5142 4.2336C22.5684 4.24549 21.6346 4.3274 20.7167 4.47282C20.4997 4.80911 20.2844 5.14832 20.0732 5.491C19.8647 5.82809 19.6593 6.16719 19.4582 6.50977C19.276 6.81957 19.0959 7.1311 18.9203 7.44494C17.6791 9.65397 16.5828 11.9598 15.6557 14.3171C14.6887 16.7744 13.8965 19.312 13.2999 21.859C12.8756 23.6684 12.5421 25.5193 12.3086 27.363L12.3037 27.4042C12.3016 27.4236 12.298 27.4438 12.2958 27.4632C11.9759 30.0339 11.8433 32.6642 11.9004 35.2814C11.9287 36.5544 12.002 37.832 12.1192 39.1076C12.8879 39.6866 13.7055 40.2113 14.5662 40.6755C14.3901 39.2714 14.2696 37.8631 14.2061 36.456C17.405 36.6771 20.5434 37.2656 23.5516 38.2074C26.1902 39.0349 28.7546 40.1369 31.2218 41.5056C32.0577 41.1566 32.8677 40.7491 33.6454 40.2891C30.6419 38.4888 27.4904 37.0688 24.229 36.0467C20.9858 35.0314 17.6013 34.4053 14.153 34.1819C14.149 32.3325 14.2451 30.4809 14.4377 28.6573C18.1989 28.7737 21.8797 29.3884 25.3935 30.4894C29.8241 31.8764 34.0103 34.0223 37.8927 36.8881C37.8959 36.8851 37.8994 36.8809 37.9026 36.878C40.2868 38.61 41.554 40.2844 42.7811 41.9083C44.0546 43.5929 45.2561 45.1832 47.4764 46.549C49.5299 47.8115 51.6983 48.7121 53.879 49.2326C56.9036 49.9544 59.9509 49.9452 62.7407 49.1593C64.9187 48.5446 66.8961 47.4828 68.807 46.4549C70.2312 45.6889 71.5767 44.9663 73.0031 44.4099C75.8876 43.2847 79.0359 42.899 82.1066 43.2923C83.5803 43.481 87.1388 44.2121 88.3624 46.9035C88.3933 46.9719 88.4217 47.0408 88.4485 47.1107C87.3674 46.6736 86.1941 46.3674 84.9508 46.4066C83.4693 46.4536 81.9462 47.1648 80.976 48.2643C80.1882 49.1572 79.8105 50.25 79.9123 51.3404C80.0495 52.8086 81.0646 54.1741 82.498 54.8184C83.7168 55.3668 85.2141 55.3994 86.6058 54.9106C88.2612 54.3279 89.6379 52.9896 90.3853 51.2387C90.4558 51.0739 90.5191 50.9074 90.5766 50.7395L97.7589 54.7846C98.3015 55.0907 98.9894 54.8979 99.2956 54.3552C99.6017 53.8125 99.4089 53.1247 98.8662 52.8185L98.8671 52.82ZM14.7305 26.4035C14.8526 25.6055 14.9919 24.8078 15.1513 24.0149C16.7944 25.1098 18.4853 26.088 20.2163 26.9452C18.4133 26.6505 16.581 26.4682 14.7308 26.4024L14.7305 26.4035ZM88.3108 50.3567C87.8115 51.5263 86.9186 52.4116 85.8581 52.7842C85.0079 53.0838 84.1204 53.076 83.4251 52.7633C82.7309 52.4509 82.2229 51.796 82.1609 51.1331C82.105 50.5389 82.4074 50.0588 82.6701 49.7607C83.2329 49.1225 84.1577 48.6927 85.0237 48.6655C85.4925 48.6505 85.9597 48.7098 86.4234 48.8204C87.1496 48.9937 87.8642 49.2936 88.5546 49.6375C88.4932 49.8791 88.4109 50.1194 88.3108 50.3567Z" fill="#3A3A3A"/>
</svg>
