<svg width="86" height="53" viewBox="0 0 86 53" fill="none" xmlns="http://www.w3.org/2000/svg">
<path d="M76.9182 28.9439C76.1028 30.8839 73.2595 37.2254 67.0423 42.912H16.9474C11.2395 37.095 8.93573 30.6899 8.34766 28.9439C11.288 25.173 14.4436 20.623 17.4627 15.2698C20.397 10.0651 22.6189 5.12107 24.3225 0.692372C24.662 -0.192762 25.8957 -0.241263 26.305 0.61659L32.5676 13.7966C34.1681 12.8296 38.518 10.4925 44.4381 10.835C49.47 11.123 53.0651 13.1994 54.6505 14.2513L59.2671 1.70482C59.6308 0.710558 61.0525 0.783308 61.3223 1.80788C62.3287 5.65154 63.9625 10.3136 66.6664 15.2668C70.0342 21.4384 73.9082 25.9399 76.9182 28.9409V28.9439Z" fill="white"/>
<path d="M26.4171 0.925813C29.0574 5.0332 31.343 9.34671 33.5346 13.7027L32.019 13.248C32.4494 12.9751 32.895 12.7175 33.3497 12.481C38.4241 9.73774 44.2047 9.85294 49.5337 11.7293C51.407 12.375 53.2015 13.2177 54.8839 14.2695L54.2625 14.4726C55.6235 10.4349 56.7057 6.29421 58.0607 2.25048L58.1789 1.89279L58.2395 1.71395C58.4335 1.12285 58.9034 0.610564 59.4914 0.38928C60.5857 -0.0654117 61.9438 0.507499 62.3621 1.61998C62.3984 1.71092 62.4379 1.82914 62.4651 1.92311C62.9107 3.4539 63.426 4.96954 63.9838 6.46396C64.6507 8.23726 65.454 10.1652 66.2451 11.893C69.1218 18.2041 73.2504 24.0151 77.5397 29.4744C77.5821 29.529 77.573 29.6047 77.5185 29.6472C77.473 29.6836 77.4093 29.6805 77.3669 29.6472C76.1665 28.7105 74.6478 27.7466 73.5657 26.6765C68.9096 21.9629 65.1236 16.3459 62.6288 10.1985C61.6224 7.70375 60.7949 5.04533 60.2129 2.46571C60.2281 2.4839 60.2675 2.49905 60.2735 2.49299C60.2826 2.48693 60.2735 2.48086 60.2826 2.47177C60.2917 2.46571 60.3129 2.43236 60.3008 2.43236C60.3008 2.43236 60.2978 2.43236 60.2947 2.43539C60.2947 2.43539 60.2947 2.43539 60.2947 2.43842C60.2947 2.43842 60.2947 2.43842 60.2947 2.44145L60.2856 2.46267L60.2159 2.63848L60.0765 2.98708C58.4881 6.9429 56.6299 10.7987 55.0476 14.7545L54.8475 15.2547L54.4262 14.9576C48.7486 10.8836 41.7918 11.2231 35.5989 13.8482C34.3985 14.3332 33.2042 15.0182 32.0826 15.6609C30.4124 11.9869 28.8179 8.27364 27.4084 4.4906C26.984 3.34478 26.5717 2.19592 26.1989 1.02585C26.1777 0.959163 26.2141 0.88944 26.2807 0.871253C26.3353 0.853065 26.3929 0.87731 26.4232 0.922779L26.4171 0.925813Z" fill="#231F20"/>
<path d="M31.3339 33.2149C31.74 33.0694 32.5737 36.516 35.2594 37.2132C36.7326 37.5951 38.2209 37.0525 38.6301 36.8221C40.2579 35.9097 41.5068 34.87 42.4496 33.2149H42.7284C43.1286 33.9121 43.2195 34.7457 43.074 35.552C42.783 37.201 41.4401 38.7288 39.685 39.1987C37.0024 39.9171 34.1469 39.0804 32.61 37.3435C31.0792 35.6157 31.0156 33.3271 31.3339 33.2119V33.2149Z" fill="#231F20"/>
<path d="M53.9382 33.3969C53.532 33.2514 52.6984 36.698 50.0127 37.3952C48.5395 37.7771 47.0511 37.2345 46.6419 37.0041C45.0141 36.0917 43.7652 35.052 42.8225 33.3969H42.5436C42.1435 34.0941 42.0525 34.9277 42.198 35.734C42.489 37.383 43.8319 38.9108 45.587 39.3806C48.2697 40.0991 51.1252 39.2624 52.662 37.5255C54.1928 35.7977 54.2565 33.5091 53.9382 33.3939V33.3969Z" fill="#231F20"/>
<path d="M49.6337 29.5805C50.7118 29.5805 51.5859 28.1989 51.5859 26.4946C51.5859 24.7904 50.7118 23.4088 49.6337 23.4088C48.5556 23.4088 47.6816 24.7904 47.6816 26.4946C47.6816 28.1989 48.5556 29.5805 49.6337 29.5805Z" fill="#231F20"/>
<path d="M35.6352 29.5805C36.7134 29.5805 37.5874 28.1989 37.5874 26.4946C37.5874 24.7904 36.7134 23.4088 35.6352 23.4088C34.5571 23.4088 33.6831 24.7904 33.6831 26.4946C33.6831 28.1989 34.5571 29.5805 35.6352 29.5805Z" fill="#231F20"/>
<path d="M22.3249 28.3892C14.9771 30.3929 7.62926 32.3966 0.281434 34.4003C0.093495 34.4518 -0.0762559 34.1365 0.0359015 33.9425C1.30298 31.7721 5.17089 29.3047 11.0061 27.7527C16.0896 26.4007 20.1666 26.6675 22.3037 27.8709C22.4977 27.98 22.5128 28.3377 22.3249 28.3892Z" fill="#231F20"/>
<path d="M23.4526 35.0035C16.1048 37.0071 8.75695 39.0108 1.40913 41.0145C1.22119 41.066 1.05144 40.7508 1.16359 40.5568C2.43067 38.3864 6.29858 35.9189 12.1338 34.3669C17.2172 33.0149 21.2943 33.2817 23.4314 34.4851C23.6254 34.5942 23.6405 34.9519 23.4526 35.0035Z" fill="#231F20"/>
<path d="M62.9441 28.6378C70.2919 30.6414 77.6397 32.6451 84.9876 34.6488C85.1755 34.7003 85.3453 34.3851 85.2331 34.1911C83.966 32.0207 80.0981 29.5532 74.2629 28.0012C69.1794 26.6493 65.1024 26.916 62.9653 28.1194C62.7713 28.2286 62.7562 28.5862 62.9441 28.6378Z" fill="#231F20"/>
<path d="M61.8164 35.255C69.1642 37.2587 76.512 39.2623 83.8599 41.266C84.0478 41.3176 84.2176 41.0023 84.1054 40.8083C82.8383 38.6379 78.9704 36.1704 73.1352 34.6184C68.0517 33.2665 63.9747 33.5332 61.8376 34.7366C61.6436 34.8458 61.6285 35.2035 61.8164 35.255Z" fill="#231F20"/>
<path d="M43.0043 35.5308L45.3384 32.8785C45.687 32.4814 45.496 31.8539 44.9807 31.7236L44.4078 31.5781C42.9164 31.1992 41.3522 31.1992 39.8608 31.5781L39.2879 31.7236C38.7756 31.8539 38.5816 32.4814 38.9302 32.8785L41.2643 35.5308C41.7251 36.0553 42.5435 36.0553 43.0073 35.5308H43.0043Z" fill="#231F20"/>
<path d="M36.1203 34.1849C36.3898 34.1849 36.6083 33.9664 36.6083 33.6969C36.6083 33.4274 36.3898 33.2089 36.1203 33.2089C35.8507 33.2089 35.6322 33.4274 35.6322 33.6969C35.6322 33.9664 35.8507 34.1849 36.1203 34.1849Z" fill="#231F20"/>
<path d="M35.1199 35.2368C35.3895 35.2368 35.608 35.0183 35.608 34.7488C35.608 34.4793 35.3895 34.2608 35.1199 34.2608C34.8504 34.2608 34.6319 34.4793 34.6319 34.7488C34.6319 35.0183 34.8504 35.2368 35.1199 35.2368Z" fill="#231F20"/>
<path d="M37.0933 35.2368C37.3628 35.2368 37.5813 35.0183 37.5813 34.7488C37.5813 34.4793 37.3628 34.2608 37.0933 34.2608C36.8237 34.2608 36.6052 34.4793 36.6052 34.7488C36.6052 35.0183 36.8237 35.2368 37.0933 35.2368Z" fill="#231F20"/>
<path d="M48.1757 34.1849C48.4452 34.1849 48.6637 33.9664 48.6637 33.6969C48.6637 33.4274 48.4452 33.2089 48.1757 33.2089C47.9061 33.2089 47.6876 33.4274 47.6876 33.6969C47.6876 33.9664 47.9061 34.1849 48.1757 34.1849Z" fill="#231F20"/>
<path d="M47.1723 35.2368C47.4419 35.2368 47.6604 35.0183 47.6604 34.7488C47.6604 34.4793 47.4419 34.2608 47.1723 34.2608C46.9028 34.2608 46.6843 34.4793 46.6843 34.7488C46.6843 35.0183 46.9028 35.2368 47.1723 35.2368Z" fill="#231F20"/>
<path d="M49.1487 35.2368C49.4183 35.2368 49.6368 35.0183 49.6368 34.7488C49.6368 34.4793 49.4183 34.2608 49.1487 34.2608C48.8792 34.2608 48.6607 34.4793 48.6607 34.7488C48.6607 35.0183 48.8792 35.2368 49.1487 35.2368Z" fill="#231F20"/>
<path d="M56.7451 40.681C52.7559 40.681 49.5246 43.9123 49.5246 47.9015C49.5246 49.6233 50.919 51.0177 52.6407 51.0177C53.2621 51.0177 53.8381 50.8358 54.3261 50.5236C54.899 51.2268 55.769 51.6754 56.7451 51.6754C57.7212 51.6754 58.5911 51.2268 59.164 50.5236C59.6491 50.8358 60.228 51.0177 60.8494 51.0177C62.5712 51.0177 63.9656 49.6233 63.9656 47.9015C63.9656 43.9123 60.7343 40.681 56.7451 40.681Z" fill="white"/>
<path d="M60.8495 51.0177C60.3281 51.1238 59.7825 51.0662 59.2763 50.8813C58.1396 52.5061 55.7479 52.7061 54.2201 51.5239C52.1952 52.5182 49.5277 51.4573 48.8123 49.2384C48.3273 47.75 48.7214 46.1434 49.3095 44.749C50.5887 41.9815 53.7048 40.1112 56.7482 40.6811C54.9537 41.0297 53.335 41.8936 52.1558 43.2577C51.0797 44.5308 50.4492 46.1646 50.4674 47.8288C50.4401 48.9231 51.2464 49.8961 52.3104 50.0901C52.8379 50.2023 53.4047 50.1144 53.8958 49.8477L54.5808 49.4748L54.9537 50.0144C55.3447 50.5842 55.9995 50.9874 56.7512 51.0692C57.6424 51.1814 58.5367 50.7843 59.1702 50.1356C59.6219 50.5782 60.1796 50.8874 60.8556 51.0147L60.8495 51.0177Z" fill="#231F20"/>
<path d="M28.5239 40.6813C32.5131 40.6813 35.7444 43.9127 35.7444 47.9018C35.7444 49.6236 34.35 51.018 32.6282 51.018C32.0068 51.018 31.4309 50.8361 30.9429 50.5239C30.3699 51.2271 29.5 51.6758 28.5239 51.6758C27.5478 51.6758 26.6778 51.2271 26.1049 50.5239C25.6199 50.8361 25.041 51.018 24.4195 51.018C22.6978 51.018 21.3034 49.6236 21.3034 47.9018C21.3034 43.9127 24.5347 40.6813 28.5239 40.6813Z" fill="white"/>
<path d="M24.4195 51.0177C24.9409 51.1238 25.4865 51.0662 25.9928 50.8813C27.1295 52.5061 29.5212 52.7061 31.0489 51.5239C33.0738 52.5182 35.7413 51.4573 36.4567 49.2384C36.9417 47.75 36.5477 46.1434 35.9596 44.749C34.6804 41.9815 31.5642 40.1112 28.5208 40.6811C30.3154 41.0297 31.9341 41.8936 33.1132 43.2577C34.1893 44.5308 34.8198 46.1646 34.8017 47.8288C34.8289 48.9231 34.0226 49.8961 32.9586 50.0901C32.4312 50.2023 31.8643 50.1144 31.3733 49.8477L30.6882 49.4748L30.3154 50.0144C29.9243 50.5842 29.2696 50.9874 28.5178 51.0692C27.6266 51.1814 26.7324 50.7843 26.0989 50.1356C25.6472 50.5782 25.0894 50.8874 24.4135 51.0147L24.4195 51.0177Z" fill="#231F20"/>
</svg>
