<svg width="25" height="25" viewBox="0 0 25 25" fill="none" xmlns="http://www.w3.org/2000/svg">
<path d="M15.2361 3.08744C16.6015 1.79872 18.4667 1.2515 19.8892 1.75451C21.4627 2.3111 22.618 4.20274 22.7347 6.33565C22.8521 8.4823 22.1245 10.6422 21.2457 13.0448C20.4142 15.3181 19.6097 17.4143 18.3861 19.1962L18.1363 19.5483C16.779 21.3902 14.9108 22.7331 12.933 22.9778C10.2886 23.305 7.46562 21.6225 5.70082 19.0818C3.92577 16.5263 3.10799 13.3884 2.26118 9.99825C1.79343 8.1257 1.42417 6.53764 1.61951 5.01423C1.81277 3.5079 2.66954 2.29835 3.68712 1.95413C4.77548 1.58614 6.30981 2.13815 7.35756 3.3982C7.79722 3.92713 8.10591 4.5493 8.42978 5.32383C8.72874 6.03879 9.08644 7.01511 9.56867 7.88412L10.9317 10.341L12.306 7.89033C12.5799 7.40177 12.8255 6.91337 13.0522 6.45986C13.2838 5.99666 13.494 5.57342 13.7185 5.16278C14.16 4.35533 14.6161 3.67506 15.2254 3.09717L15.2361 3.08744Z" stroke="#F7F7F7" stroke-width="3.13408"/>
</svg>
