<svg width="25" height="25" viewBox="0 0 25 25" fill="none" xmlns="http://www.w3.org/2000/svg">
<path d="M6.41898 0.0255824C6.80197 -0.0207524 7.88029 0.00991836 8.30418 0.0103668L12.0799 0.0107554L15.9782 0.00997813C16.6072 0.00914111 17.6322 -0.0192876 18.2141 0.053204C19.1364 0.168114 20.4259 0.62922 21.214 1.12919C22.8287 2.169 23.9653 3.80659 24.3746 5.68303C24.6101 6.75519 24.5386 8.15991 24.5379 9.29162L24.5377 13.7302L24.5391 16.4228C24.5392 16.9382 24.5556 17.6735 24.4892 18.1656C24.3633 19.1005 23.9156 20.4194 23.3967 21.2229C22.4552 22.6659 21.0394 23.735 19.3938 24.2455C19.1138 24.3311 18.4274 24.4516 18.1038 24.5202C17.3885 24.5841 16.543 24.5598 15.8126 24.5596L12.248 24.5588L8.98362 24.5595C8.41667 24.5605 7.84786 24.5688 7.28 24.5602C3.4436 24.5021 0.350345 21.688 0.0361654 17.8543C-0.0343831 16.9932 0.0199035 15.9396 0.020591 15.0544L0.02083 10.6838L0.0193654 8.05639C0.0189768 7.60841 -9.52543e-05 6.75118 0.0654909 6.33629C0.213224 5.40138 0.647247 4.08218 1.16676 3.28872C2.08969 1.86032 3.49086 0.807026 5.11945 0.317372C5.42819 0.223656 6.08319 0.0952639 6.41898 0.0255824ZM12.8046 18.3513C16.1627 18.0593 18.6479 15.0997 18.3549 11.7417C18.0618 8.38369 15.1015 5.89943 11.7436 6.19349C8.3871 6.48746 5.90413 9.4462 6.19705 12.8028C6.48998 16.1593 9.44796 18.6432 12.8046 18.3513ZM19.5528 6.09924C20.7894 5.86523 20.7525 4.11832 19.2524 4.1788C17.9745 4.41409 18.1977 6.20578 19.5528 6.09924Z" fill="#FFFBC7"/>
<path d="M11.8576 8.21259C14.0936 7.98286 16.094 9.60586 16.3299 11.8413C16.5658 14.0767 14.9484 16.0815 12.7136 16.3236C10.4701 16.5667 8.45566 14.9415 8.21881 12.6973C7.98197 10.4531 9.61271 8.44319 11.8576 8.21259Z" fill="#FFFBC7"/>
</svg>
