<svg width="488" height="112" viewBox="0 0 488 112" fill="none" xmlns="http://www.w3.org/2000/svg">
<g clip-path="url(#clip0_4007_1814)">
<path d="M417.881 94.0352H404.917C403.596 94.0352 402.508 93.2663 402.451 92.2923L398.953 33.9652C398.891 32.9285 400.013 32.0627 401.42 32.0627H421.219C422.626 32.0627 423.748 32.9285 423.686 33.9652L420.348 92.2923C420.291 93.2663 419.203 94.0409 417.881 94.0409V94.0352Z" fill="#FFFBC7"/>
<path d="M273.026 58.401L267.114 90.7144C266.977 91.4491 266.43 92.0472 265.707 92.2295C260.888 93.437 254.167 94.0408 245.543 94.0408C231.634 94.0408 220.333 90.908 211.629 84.6481C201.365 77.1863 196.227 66.0792 196.227 51.3379C196.227 36.5967 200.721 26.1844 209.715 18.2441C218.162 10.7824 229.281 7.05151 243.082 7.05151C246.796 7.05151 250.704 7.25657 254.811 7.66099C256.018 7.78061 256.81 8.97675 256.457 10.1387L251.29 26.885C251.011 27.7963 250.106 28.3659 249.16 28.2235C247.998 28.0413 246.751 27.8875 245.748 27.8647C241.693 27.7736 237.609 28.5197 233.895 30.1545C227.191 33.0993 222.207 38.9263 219.86 45.8128C218.18 50.7398 217.809 56.0599 218.356 61.2319C218.738 64.826 219.615 68.4886 221.802 71.3707C225.072 75.6769 230.734 77.7047 235.98 77.9895C240.046 78.2059 244.398 77.6705 248.323 76.5769C248.824 76.4345 250.613 76.0756 250.607 75.3123L250.459 58.0877C250.447 57.0225 251.308 56.151 252.378 56.151C256.599 56.151 266.613 56.151 271.147 56.151C272.343 56.151 273.249 57.239 273.032 58.4123L273.026 58.401Z" fill="#FFFBC7"/>
<path d="M367.102 94.0352H351.762C350.634 94.0352 349.717 93.1239 349.712 91.9961L349.33 33.8684C349.324 32.7406 348.407 31.8292 347.279 31.8292H329.2C328.232 31.8292 327.395 31.1514 327.195 30.2058L323.447 12.6223C323.174 11.3464 324.148 10.1445 325.452 10.1445H392.551C393.873 10.1445 394.847 11.3692 394.551 12.6565L390.484 30.24C390.267 31.1685 389.441 31.8292 388.484 31.8292H370.667C369.528 31.8292 368.605 32.7577 368.617 33.8969L369.152 91.9562C369.163 93.0954 368.241 94.0238 367.102 94.0238V94.0352Z" fill="#FFFBC7"/>
<path d="M484.952 76.5885L452.137 76.486C450.685 76.486 449.551 75.2385 449.682 73.7917L455.173 12.8502C455.304 11.4034 454.165 10.156 452.712 10.156H434.799C433.471 10.156 432.378 11.2098 432.326 12.5369L429.427 91.4721C429.376 92.8733 430.498 94.0353 431.899 94.0353H484.946C486.313 94.0353 487.418 92.9303 487.418 91.5633V79.0548C487.418 77.6935 486.319 76.5885 484.952 76.5828V76.5885Z" fill="#FFFBC7"/>
<path d="M334.258 91.1076L316.55 12.0357C316.305 10.9364 315.331 10.156 314.203 10.156H293.783C292.655 10.156 291.675 10.9421 291.436 12.0471L274.188 91.1189C273.864 92.617 275.003 94.0353 276.535 94.0353H287.386C288.548 94.0353 289.539 93.2094 289.75 92.0645L292.769 75.6771C292.979 74.5436 293.959 73.7234 295.11 73.7063L307.071 73.581C308.205 73.5696 309.19 74.35 309.441 75.4493L313.24 92.1556C313.491 93.2493 314.465 94.0239 315.587 94.0239H331.917C333.455 94.0239 334.6 92.5942 334.264 91.0962L334.258 91.1076ZM306.815 65.7946H295.184C294.665 65.7946 294.267 65.3218 294.364 64.8092L298.032 44.4403C298.106 44.0415 298.448 43.751 298.852 43.751H301.877C302.264 43.751 302.6 44.013 302.691 44.389L307.624 64.7579C307.749 65.2819 307.35 65.7888 306.809 65.7888L306.815 65.7946Z" fill="#FFFBC7"/>
<path d="M411.32 27.4262C418.568 27.4262 424.443 23.2107 424.443 18.0107C424.443 12.8107 418.568 8.59521 411.32 8.59521C404.072 8.59521 398.196 12.8107 398.196 18.0107C398.196 23.2107 404.072 27.4262 411.32 27.4262Z" fill="#FFFBC7"/>
<path d="M168.271 93.7391C170.083 93.7391 171.552 92.241 171.495 90.4297C169.895 40.3562 132.153 0.30188 85.833 0.30188C39.5131 0.30188 1.77143 40.3619 0.170858 90.4297C0.113898 92.241 1.57777 93.7391 3.39479 93.7391H168.277H168.271Z" fill="#1A5331"/>
<path d="M150.249 67.4918C148.717 71.1372 143.374 83.0533 131.691 93.739H37.5594C26.8338 82.8084 22.5049 70.7727 21.3998 67.4918C26.925 60.406 32.8545 51.8563 38.5277 41.7971C44.0414 32.0171 48.2166 22.7269 51.4178 14.4051C52.0557 12.7419 54.374 12.6507 55.1429 14.2627L66.9109 39.0289C69.9184 37.2119 78.0921 32.8203 89.2164 33.4639C98.6718 34.005 105.427 37.9068 108.406 39.8833L117.081 16.3075C117.765 14.4393 120.436 14.576 120.943 16.5012C122.834 23.7237 125.904 32.4842 130.985 41.7914C137.313 53.3885 144.593 61.8471 150.249 67.4861V67.4918Z" fill="white"/>
<path d="M55.3537 14.8438C60.3149 22.5619 64.6097 30.6673 68.7279 38.8524L65.8799 37.998C66.6888 37.4854 67.5261 37.0012 68.3805 36.5569C77.9156 31.4021 88.7779 31.6185 98.7914 35.1443C102.312 36.3576 105.684 37.9411 108.845 39.9176L107.677 40.2992C110.235 32.7121 112.268 24.9314 114.814 17.3329L115.036 16.6608L115.15 16.3248C115.515 15.214 116.398 14.2514 117.503 13.8356C119.559 12.9812 122.111 14.0577 122.897 16.1482C122.965 16.3191 123.039 16.5412 123.091 16.7178C123.928 19.5943 124.896 22.4423 125.944 25.2504C127.197 28.5825 128.707 32.2052 130.193 35.4519C135.599 47.311 143.357 58.2302 151.417 68.4887C151.497 68.5912 151.479 68.7336 151.377 68.8134C151.291 68.8817 151.172 68.876 151.092 68.8134C148.836 67.0533 145.983 65.242 143.949 63.2313C135.2 54.374 128.086 43.8193 123.398 32.2679C121.507 27.58 119.952 22.5847 118.858 17.7374C118.887 17.7715 118.961 17.8 118.972 17.7886C118.989 17.7772 118.972 17.7658 118.989 17.7488C119.007 17.7374 119.046 17.6747 119.024 17.6747C119.024 17.6747 119.018 17.6747 119.012 17.6804C119.012 17.6804 119.012 17.6804 119.012 17.6861C119.012 17.6861 119.012 17.6861 119.012 17.6918L118.995 17.7317L118.864 18.062L118.602 18.7171C115.617 26.1503 112.126 33.3957 109.152 40.8289L108.777 41.7688L107.985 41.2106C97.3161 33.5551 84.2438 34.1931 72.6069 39.1258C70.3513 40.0372 68.1071 41.3245 65.9995 42.532C62.861 35.6285 59.865 28.6509 57.2163 21.5423C56.4189 19.3892 55.6442 17.2304 54.9436 15.0318C54.9037 14.9065 54.9721 14.7754 55.0974 14.7413C55.1999 14.7071 55.3082 14.7527 55.3651 14.8381L55.3537 14.8438Z" fill="#231F20"/>
<path d="M64.5926 75.5174C65.3559 75.244 66.9223 81.7204 71.9689 83.0305C74.7372 83.7482 77.5339 82.7286 78.3029 82.2957C81.3616 80.5812 83.7084 78.6275 85.4799 75.5174H86.0039C86.7558 76.8275 86.9266 78.3939 86.6532 79.909C86.1064 83.0077 83.5831 85.8785 80.2851 86.7613C75.2441 88.1113 69.8785 86.5392 66.9906 83.2754C64.1142 80.0287 63.9945 75.7282 64.5926 75.5117V75.5174Z" fill="#231F20"/>
<path d="M107.068 75.8594C106.304 75.586 104.738 82.0623 99.6914 83.3724C96.9231 84.0901 94.1264 83.0705 93.3574 82.6376C90.2987 80.9231 87.9519 78.9694 86.1805 75.8594H85.6565C84.9046 77.1694 84.7337 78.7359 85.0071 80.251C85.5539 83.3496 88.0773 86.2204 91.3752 87.1033C96.4162 88.4532 101.782 86.8811 104.67 83.6173C107.546 80.3706 107.666 76.0701 107.068 75.8537V75.8594Z" fill="#231F20"/>
<path d="M98.9793 68.688C101.005 68.688 102.648 66.0919 102.648 62.8895C102.648 59.687 101.005 57.0909 98.9793 57.0909C96.9534 57.0909 95.3111 59.687 95.3111 62.8895C95.3111 66.0919 96.9534 68.688 98.9793 68.688Z" fill="#231F20"/>
<path d="M72.6752 68.688C74.7011 68.688 76.3435 66.0919 76.3435 62.8895C76.3435 59.687 74.7011 57.0909 72.6752 57.0909C70.6493 57.0909 69.007 59.687 69.007 62.8895C69.007 66.0919 70.6493 68.688 72.6752 68.688Z" fill="#231F20"/>
<path d="M47.6641 66.4496C33.857 70.2146 20.0499 73.9797 6.24283 77.7448C5.88967 77.8416 5.5707 77.2492 5.78145 76.8847C8.16238 72.8063 15.4305 68.1698 26.3953 65.2534C35.9475 62.713 43.6086 63.2143 47.6243 65.4756C47.9888 65.6806 48.0173 66.3527 47.6641 66.4496Z" fill="#231F20"/>
<path d="M49.7831 78.8782C35.976 82.6432 22.1689 86.4083 8.36178 90.1733C8.00863 90.2702 7.68966 89.6778 7.90041 89.3132C10.2813 85.2349 17.5494 80.5984 28.5142 77.682C38.0664 75.1416 45.7275 75.6429 49.7432 77.9042C50.1078 78.1092 50.1362 78.7813 49.7831 78.8782Z" fill="#231F20"/>
<path d="M123.991 66.9165C137.798 70.6816 151.605 74.4466 165.412 78.2117C165.765 78.3085 166.084 77.7161 165.873 77.3516C163.492 73.2732 156.224 68.6367 145.259 65.7204C135.707 63.1799 128.046 63.6812 124.03 65.9425C123.666 66.1476 123.637 66.8197 123.991 66.9165Z" fill="#231F20"/>
<path d="M121.872 79.351C135.679 83.116 149.486 86.8811 163.293 90.6461C163.646 90.743 163.965 90.1506 163.754 89.786C161.373 85.7077 154.105 81.0712 143.14 78.1548C133.588 75.6144 125.927 76.1156 121.912 78.3769C121.547 78.582 121.518 79.2541 121.872 79.351Z" fill="#231F20"/>
<path d="M86.5222 79.8692L90.9081 74.8852C91.5632 74.139 91.2043 72.9599 90.236 72.715L89.1595 72.4416C86.357 71.7296 83.4179 71.7296 80.6155 72.4416L79.5389 72.715C78.5763 72.9599 78.2118 74.139 78.8668 74.8852L83.2527 79.8692C84.1185 80.8546 85.6564 80.8546 86.5279 79.8692H86.5222Z" fill="#231F20"/>
<path d="M73.5866 77.3402C74.0931 77.3402 74.5037 76.9296 74.5037 76.4232C74.5037 75.9167 74.0931 75.5061 73.5866 75.5061C73.0801 75.5061 72.6696 75.9167 72.6696 76.4232C72.6696 76.9296 73.0801 77.3402 73.5866 77.3402Z" fill="#231F20"/>
<path d="M71.7069 79.3168C72.2134 79.3168 72.624 78.9062 72.624 78.3997C72.624 77.8932 72.2134 77.4827 71.7069 77.4827C71.2004 77.4827 70.7899 77.8932 70.7899 78.3997C70.7899 78.9062 71.2004 79.3168 71.7069 79.3168Z" fill="#231F20"/>
<path d="M75.415 79.3168C75.9215 79.3168 76.3321 78.9062 76.3321 78.3997C76.3321 77.8932 75.9215 77.4827 75.415 77.4827C74.9086 77.4827 74.498 77.8932 74.498 78.3997C74.498 78.9062 74.9086 79.3168 75.415 79.3168Z" fill="#231F20"/>
<path d="M96.2396 77.3402C96.746 77.3402 97.1566 76.9296 97.1566 76.4232C97.1566 75.9167 96.746 75.5061 96.2396 75.5061C95.7331 75.5061 95.3225 75.9167 95.3225 76.4232C95.3225 76.9296 95.7331 77.3402 96.2396 77.3402Z" fill="#231F20"/>
<path d="M94.3542 79.3168C94.8607 79.3168 95.2713 78.9062 95.2713 78.3997C95.2713 77.8932 94.8607 77.4827 94.3542 77.4827C93.8478 77.4827 93.4372 77.8932 93.4372 78.3997C93.4372 78.9062 93.8478 79.3168 94.3542 79.3168Z" fill="#231F20"/>
<path d="M98.068 79.3168C98.5745 79.3168 98.9851 78.9062 98.9851 78.3997C98.9851 77.8932 98.5745 77.4827 98.068 77.4827C97.5615 77.4827 97.1509 77.8932 97.1509 78.3997C97.1509 78.9062 97.5615 79.3168 98.068 79.3168Z" fill="#231F20"/>
<path d="M112.342 89.5469C104.846 89.5469 98.7743 95.6188 98.7743 103.115C98.7743 106.35 101.394 108.97 104.63 108.97C105.797 108.97 106.88 108.628 107.797 108.042C108.873 109.363 110.508 110.206 112.342 110.206C114.176 110.206 115.811 109.363 116.888 108.042C117.799 108.628 118.887 108.97 120.055 108.97C123.29 108.97 125.91 106.35 125.91 103.115C125.91 95.6188 119.838 89.5469 112.342 89.5469Z" fill="white"/>
<path d="M120.055 108.97C119.075 109.17 118.05 109.061 117.098 108.714C114.962 111.767 110.468 112.143 107.597 109.921C103.792 111.79 98.78 109.796 97.4358 105.627C96.5244 102.83 97.2649 99.811 98.3699 97.1908C100.774 91.9904 106.629 88.476 112.348 89.5468C108.976 90.2019 105.934 91.8252 103.718 94.3884C101.696 96.7807 100.512 99.8509 100.546 102.978C100.495 105.034 102.01 106.863 104.009 107.227C105 107.438 106.065 107.273 106.988 106.772L108.275 106.071L108.976 107.085C109.711 108.156 110.941 108.913 112.354 109.067C114.028 109.278 115.709 108.532 116.899 107.313C117.748 108.144 118.796 108.725 120.066 108.964L120.055 108.97Z" fill="#231F20"/>
<path d="M59.3124 89.5469C66.8084 89.5469 72.8803 95.6188 72.8803 103.115C72.8803 106.35 70.2602 108.97 67.0248 108.97C65.8571 108.97 64.7749 108.628 63.8578 108.042C62.7813 109.363 61.1466 110.206 59.3124 110.206C57.4783 110.206 55.8436 109.363 54.767 108.042C53.8557 108.628 52.7677 108.97 51.6001 108.97C48.3647 108.97 45.7446 106.35 45.7446 103.115C45.7446 95.6188 51.8165 89.5469 59.3124 89.5469Z" fill="white"/>
<path d="M51.6001 108.97C52.5798 109.17 53.6051 109.061 54.5563 108.714C56.6923 111.767 61.1864 112.143 64.0572 109.921C67.8622 111.79 72.8746 109.796 74.2189 105.627C75.1302 102.83 74.3898 99.811 73.2847 97.1908C70.881 91.9904 65.0255 88.476 59.3068 89.5468C62.6788 90.2019 65.7205 91.8252 67.9362 94.3884C69.9583 96.7807 71.143 99.8509 71.1089 102.978C71.1601 105.034 69.645 106.863 67.6457 107.227C66.6546 107.438 65.5894 107.273 64.6667 106.772L63.3794 106.071L62.6788 107.085C61.944 108.156 60.7137 108.913 59.3011 109.067C57.6264 109.278 55.9461 108.532 54.7557 107.313C53.907 108.144 52.8589 108.725 51.5887 108.964L51.6001 108.97Z" fill="#231F20"/>
</g>
<defs>
<clipPath id="clip0_4007_1814">
<rect width="487.578" height="111.642" fill="white"/>
</clipPath>
</defs>
</svg>
