<svg width="224" height="52" viewBox="0 0 224 52" fill="none" xmlns="http://www.w3.org/2000/svg">
<g clip-path="url(#clip0_4053_348)">
<path d="M191.532 43.1003H185.59C184.984 43.1003 184.485 42.7478 184.459 42.3014L182.856 15.5678C182.828 15.0926 183.342 14.6958 183.987 14.6958H193.062C193.706 14.6958 194.221 15.0926 194.192 15.5678L192.662 42.3014C192.636 42.7478 192.137 43.1029 191.532 43.1029V43.1003Z" fill="#FFFBC7"/>
<path d="M125.139 26.7674L122.429 41.578C122.366 41.9147 122.116 42.1889 121.784 42.2724C119.575 42.8259 116.495 43.1026 112.542 43.1026C106.167 43.1026 100.987 41.6667 96.9981 38.7976C92.2936 35.3775 89.9387 30.2867 89.9387 23.5302C89.9387 16.7737 91.9986 12.0013 96.1209 8.36197C99.9925 4.94194 105.089 3.23193 111.414 3.23193C113.117 3.23193 114.907 3.32592 116.79 3.51128C117.343 3.56611 117.706 4.11435 117.544 4.64693L115.176 12.3224C115.048 12.7401 114.633 13.0012 114.2 12.9359C113.667 12.8524 113.096 12.7819 112.636 12.7714C110.777 12.7297 108.905 13.0717 107.203 13.8209C104.131 15.1707 101.846 17.8414 100.771 20.9978C100 23.256 99.8307 25.6944 100.081 28.0649C100.256 29.7123 100.658 31.391 101.661 32.712C103.159 34.6857 105.754 35.6151 108.159 35.7456C110.023 35.8448 112.017 35.5994 113.816 35.0982C114.046 35.0329 114.866 34.8684 114.863 34.5186L114.795 26.6238C114.79 26.1356 115.184 25.7362 115.675 25.7362C117.61 25.7362 122.199 25.7362 124.277 25.7362C124.826 25.7362 125.241 26.2348 125.141 26.7726L125.139 26.7674Z" fill="#FFFBC7"/>
<path d="M168.257 43.0999H161.227C160.71 43.0999 160.289 42.6822 160.287 42.1652L160.112 15.523C160.109 15.0061 159.689 14.5884 159.172 14.5884H150.886C150.442 14.5884 150.058 14.2777 149.967 13.8443L148.249 5.78507C148.123 5.20027 148.57 4.64941 149.168 4.64941H179.922C180.527 4.64941 180.974 5.21072 180.838 5.80074L178.974 13.86C178.875 14.2855 178.496 14.5884 178.058 14.5884H169.891C169.369 14.5884 168.946 15.0139 168.952 15.5361L169.197 42.147C169.202 42.6691 168.779 43.0946 168.257 43.0946V43.0999Z" fill="#FFFBC7"/>
<path d="M222.273 35.1034L207.232 35.0565C206.567 35.0565 206.047 34.4847 206.107 33.8216L208.624 5.88965C208.684 5.22653 208.162 4.65479 207.496 4.65479H199.285C198.677 4.65479 198.176 5.13777 198.152 5.74607L196.824 41.9252C196.8 42.5675 197.314 43.1 197.957 43.1H222.27C222.897 43.1 223.403 42.5936 223.403 41.967V36.2339C223.403 35.6099 222.899 35.1034 222.273 35.1008V35.1034Z" fill="#FFFBC7"/>
<path d="M153.204 41.7581L145.087 5.51632C144.975 5.01246 144.529 4.65479 144.012 4.65479H134.652C134.135 4.65479 133.686 5.01506 133.577 5.52154L125.672 41.7633C125.523 42.45 126.045 43.1 126.747 43.1H131.721C132.253 43.1 132.707 42.7215 132.804 42.1967L134.188 34.6857C134.284 34.1662 134.733 33.7903 135.261 33.7824L140.743 33.725C141.263 33.7198 141.714 34.0774 141.829 34.5813L143.571 42.2385C143.685 42.7397 144.132 43.0948 144.646 43.0948H152.131C152.836 43.0948 153.361 42.4395 153.207 41.7529L153.204 41.7581ZM140.626 30.1562H135.295C135.057 30.1562 134.874 29.9395 134.919 29.7045L136.6 20.3686C136.634 20.1859 136.791 20.0527 136.976 20.0527H138.362C138.54 20.0527 138.694 20.1728 138.735 20.3451L140.996 29.681C141.054 29.9212 140.871 30.1535 140.623 30.1535L140.626 30.1562Z" fill="#FFFBC7"/>
<path d="M188.524 12.5704C191.846 12.5704 194.539 10.6383 194.539 8.25495C194.539 5.87157 191.846 3.93945 188.524 3.93945C185.202 3.93945 182.509 5.87157 182.509 8.25495C182.509 10.6383 185.202 12.5704 188.524 12.5704Z" fill="#FFFBC7"/>
<path d="M77.1254 42.9637C77.9556 42.9637 78.6292 42.2771 78.6031 41.4469C77.8695 18.4962 60.5709 0.137695 39.3407 0.137695C18.1104 0.137695 0.81192 18.4988 0.0783126 41.4469C0.0522055 42.2771 0.723155 42.9637 1.55597 42.9637H77.128H77.1254Z" fill="#368C5E"/>
<path d="M68.8651 30.9339C68.1628 32.6048 65.714 38.0664 60.3594 42.964H17.2149C12.299 37.9541 10.3148 32.4377 9.80836 30.9339C12.3407 27.6862 15.0585 23.7675 17.6587 19.157C20.1859 14.6744 22.0996 10.4164 23.5668 6.60214C23.8592 5.83982 24.9217 5.79804 25.2742 6.53687L30.6679 17.8882C32.0463 17.0554 35.7927 15.0425 40.8914 15.3376C45.2252 15.5856 48.3215 17.3739 49.6869 18.2798L53.663 7.47412C53.9763 6.6178 55.2007 6.68046 55.433 7.56288C56.2998 10.8733 57.707 14.8885 60.0357 19.1544C62.9362 24.4698 66.2727 28.3467 68.8651 30.9313V30.9339Z" fill="white"/>
<path d="M25.3708 6.80355C27.6447 10.3411 29.6132 14.0561 31.5007 17.8077L30.1954 17.4161C30.5661 17.1811 30.9499 16.9592 31.3415 16.7556C35.7118 14.3929 40.6904 14.4921 45.28 16.1081C46.8934 16.6642 48.439 17.39 49.8879 18.2959L49.3527 18.4708C50.5249 14.9933 51.457 11.4271 52.6239 7.94442L52.7258 7.63636L52.778 7.48233C52.9451 6.97324 53.3497 6.53204 53.8562 6.34145C54.7987 5.94985 55.9683 6.44327 56.3285 7.4014C56.3599 7.47972 56.3938 7.58154 56.4173 7.66247C56.8011 8.98088 57.2449 10.2862 57.7253 11.5733C58.2996 13.1006 58.9914 14.761 59.6728 16.2491C62.1504 21.6846 65.7062 26.6893 69.4003 31.3912C69.4369 31.4382 69.429 31.5034 69.3821 31.54C69.3429 31.5713 69.2881 31.5687 69.2515 31.54C68.2177 30.7333 66.9097 29.9031 65.9777 28.9815C61.9677 24.9218 58.7069 20.0842 56.5583 14.7897C55.6915 12.6411 54.9788 10.3515 54.4775 8.12979C54.4906 8.14545 54.5245 8.15851 54.5297 8.15328C54.5376 8.14806 54.5297 8.14284 54.5376 8.13501C54.5454 8.12979 54.5637 8.10107 54.5532 8.10107C54.5532 8.10107 54.5506 8.10107 54.548 8.10368C54.548 8.10368 54.548 8.10367 54.548 8.10628C54.548 8.10628 54.548 8.10629 54.548 8.1089L54.5402 8.12718L54.4801 8.27859L54.3601 8.57882C52.992 11.9858 51.3917 15.3066 50.0289 18.7136L49.8566 19.1444L49.4937 18.8885C44.6038 15.3797 38.6123 15.6721 33.2786 17.933C32.2448 18.3507 31.2162 18.9407 30.2502 19.4942C28.8117 16.33 27.4385 13.1319 26.2245 9.87374C25.859 8.88689 25.5039 7.89744 25.1828 6.8897C25.1645 6.83227 25.1959 6.77222 25.2533 6.75656C25.3003 6.74089 25.3499 6.76177 25.376 6.80093L25.3708 6.80355Z" fill="#231F20"/>
<path d="M29.6053 34.6123C29.9552 34.4869 30.6731 37.4553 32.9862 38.0558C34.255 38.3847 35.5369 37.9174 35.8893 37.719C37.2912 36.9332 38.3669 36.0377 39.1788 34.6123H39.419C39.7636 35.2127 39.8419 35.9306 39.7166 36.6251C39.466 38.0453 38.3094 39.3611 36.7978 39.7658C34.4873 40.3845 32.0281 39.664 30.7044 38.168C29.386 36.6799 29.3312 34.7088 29.6053 34.6096V34.6123Z" fill="#231F20"/>
<path d="M49.0734 34.769C48.7236 34.6437 48.0056 37.612 45.6926 38.2125C44.4238 38.5415 43.1419 38.0741 42.7895 37.8757C41.3875 37.0899 40.3119 36.1944 39.5 34.769H39.2598C38.9152 35.3695 38.8369 36.0874 38.9622 36.7818C39.2128 38.2021 40.3693 39.5179 41.8809 39.9225C44.1914 40.5413 46.6507 39.8207 47.9743 38.3248C49.2927 36.8367 49.3476 34.8656 49.0734 34.7664V34.769Z" fill="#231F20"/>
<path d="M45.3662 31.4819C46.2947 31.4819 47.0475 30.292 47.0475 28.8242C47.0475 27.3564 46.2947 26.1665 45.3662 26.1665C44.4376 26.1665 43.6849 27.3564 43.6849 28.8242C43.6849 30.292 44.4376 31.4819 45.3662 31.4819Z" fill="#231F20"/>
<path d="M33.3099 31.4819C34.2385 31.4819 34.9912 30.292 34.9912 28.8242C34.9912 27.3564 34.2385 26.1665 33.3099 26.1665C32.3814 26.1665 31.6286 27.3564 31.6286 28.8242C31.6286 30.292 32.3814 31.4819 33.3099 31.4819Z" fill="#231F20"/>
<path d="M21.8463 30.4557C15.518 32.1814 9.18962 33.9071 2.86128 35.6327C2.69941 35.6771 2.55321 35.4056 2.64981 35.2385C3.74108 33.3693 7.07234 31.2441 12.0979 29.9075C16.4761 28.7431 19.9875 28.9728 21.828 30.0093C21.9951 30.1033 22.0082 30.4113 21.8463 30.4557Z" fill="#231F20"/>
<path d="M22.8176 36.1525C16.4892 37.8782 10.1609 39.6038 3.83251 41.3295C3.67065 41.3739 3.52445 41.1024 3.62105 40.9353C4.71232 39.066 8.04358 36.9409 13.0692 35.6042C17.4473 34.4399 20.9587 34.6696 22.7993 35.7061C22.9664 35.8001 22.9794 36.1081 22.8176 36.1525Z" fill="#231F20"/>
<path d="M56.8298 30.6696C63.1582 32.3953 69.4865 34.1209 75.8149 35.8466C75.9767 35.891 76.1229 35.6195 76.0263 35.4524C74.9351 33.5831 71.6038 31.458 66.5782 30.1213C62.2 28.957 58.6887 29.1867 56.8481 30.2232C56.681 30.3171 56.668 30.6252 56.8298 30.6696Z" fill="#231F20"/>
<path d="M55.8586 36.3693C62.1869 38.095 68.5153 39.8206 74.8436 41.5463C75.0055 41.5907 75.1517 41.3192 75.0551 41.1521C73.9638 39.2828 70.6326 37.1577 65.607 35.821C61.2288 34.6567 57.7174 34.8864 55.8769 35.9229C55.7098 36.0168 55.6967 36.3249 55.8586 36.3693Z" fill="#231F20"/>
<path d="M39.6565 36.6066L41.6668 34.3223C41.967 33.9803 41.8026 33.4398 41.3587 33.3276L40.8653 33.2023C39.5808 32.8759 38.2337 32.8759 36.9492 33.2023L36.4558 33.3276C36.0146 33.4398 35.8475 33.9803 36.1478 34.3223L38.158 36.6066C38.5548 37.0583 39.2597 37.0583 39.6592 36.6066H39.6565Z" fill="#231F20"/>
<path d="M33.7277 35.4471C33.9598 35.4471 34.148 35.2589 34.148 35.0268C34.148 34.7946 33.9598 34.6064 33.7277 34.6064C33.4955 34.6064 33.3073 34.7946 33.3073 35.0268C33.3073 35.2589 33.4955 35.4471 33.7277 35.4471Z" fill="#231F20"/>
<path d="M32.8661 36.3528C33.0983 36.3528 33.2865 36.1647 33.2865 35.9325C33.2865 35.7004 33.0983 35.5122 32.8661 35.5122C32.634 35.5122 32.4458 35.7004 32.4458 35.9325C32.4458 36.1647 32.634 36.3528 32.8661 36.3528Z" fill="#231F20"/>
<path d="M34.5657 36.3528C34.7978 36.3528 34.986 36.1647 34.986 35.9325C34.986 35.7004 34.7978 35.5122 34.5657 35.5122C34.3335 35.5122 34.1453 35.7004 34.1453 35.9325C34.1453 36.1647 34.3335 36.3528 34.5657 36.3528Z" fill="#231F20"/>
<path d="M44.1104 35.4471C44.3426 35.4471 44.5308 35.2589 44.5308 35.0268C44.5308 34.7946 44.3426 34.6064 44.1104 34.6064C43.8783 34.6064 43.6901 34.7946 43.6901 35.0268C43.6901 35.2589 43.8783 35.4471 44.1104 35.4471Z" fill="#231F20"/>
<path d="M43.2463 36.3528C43.4784 36.3528 43.6666 36.1647 43.6666 35.9325C43.6666 35.7004 43.4784 35.5122 43.2463 35.5122C43.0142 35.5122 42.826 35.7004 42.826 35.9325C42.826 36.1647 43.0142 36.3528 43.2463 36.3528Z" fill="#231F20"/>
<path d="M44.9485 36.3528C45.1806 36.3528 45.3688 36.1647 45.3688 35.9325C45.3688 35.7004 45.1806 35.5122 44.9485 35.5122C44.7163 35.5122 44.5282 35.7004 44.5282 35.9325C44.5282 36.1647 44.7163 36.3528 44.9485 36.3528Z" fill="#231F20"/>
<path d="M51.4909 41.0425C48.0552 41.0425 45.2722 43.8255 45.2722 47.2612C45.2722 48.7441 46.4731 49.945 47.956 49.945C48.4912 49.945 48.9872 49.7883 49.4076 49.5194C49.901 50.1251 50.6503 50.5115 51.4909 50.5115C52.3315 50.5115 53.0808 50.1251 53.5742 49.5194C53.992 49.7883 54.4906 49.945 55.0258 49.945C56.5087 49.945 57.7096 48.7441 57.7096 47.2612C57.7096 43.8255 54.9266 41.0425 51.4909 41.0425Z" fill="white"/>
<path d="M55.0259 49.9453C54.5768 50.0367 54.1069 49.9871 53.6709 49.8278C52.6919 51.2271 50.632 51.3995 49.3163 50.3813C47.5723 51.2376 45.2749 50.3239 44.6588 48.4128C44.241 47.131 44.5804 45.7473 45.0869 44.5464C46.1886 42.1628 48.8724 40.552 51.4936 41.0428C49.948 41.343 48.5539 42.0871 47.5384 43.2619C46.6116 44.3584 46.0685 45.7656 46.0842 47.1988C46.0607 48.1413 46.7552 48.9793 47.6715 49.1464C48.1258 49.243 48.614 49.1673 49.0369 48.9376L49.6269 48.6164L49.948 49.0812C50.2848 49.572 50.8487 49.9192 51.4962 49.9897C52.2637 50.0863 53.0339 49.7443 53.5795 49.1856C53.9685 49.5668 54.4489 49.833 55.0311 49.9427L55.0259 49.9453Z" fill="#231F20"/>
<path d="M27.1852 41.043C30.6209 41.043 33.4039 43.826 33.4039 47.2617C33.4039 48.7445 32.203 49.9455 30.7201 49.9455C30.1849 49.9455 29.6889 49.7888 29.2686 49.5199C28.7752 50.1256 28.0259 50.512 27.1852 50.512C26.3446 50.512 25.5953 50.1256 25.1019 49.5199C24.6842 49.7888 24.1855 49.9455 23.6503 49.9455C22.1675 49.9455 20.9665 48.7445 20.9665 47.2617C20.9665 43.826 23.7496 41.043 27.1852 41.043Z" fill="white"/>
<path d="M23.6503 49.9453C24.0994 50.0367 24.5693 49.9871 25.0053 49.8278C25.9843 51.2271 28.0442 51.3995 29.36 50.3813C31.1039 51.2376 33.4013 50.3239 34.0174 48.4128C34.4352 47.131 34.0958 45.7473 33.5893 44.5464C32.4876 42.1628 29.8038 40.552 27.1826 41.0428C28.7282 41.343 30.1223 42.0871 31.1378 43.2619C32.0646 44.3584 32.6077 45.7656 32.592 47.1988C32.6155 48.1413 31.921 48.9793 31.0047 49.1464C30.5504 49.243 30.0622 49.1673 29.6393 48.9376L29.0493 48.6164L28.7282 49.0812C28.3914 49.572 27.8275 49.9192 27.18 49.9897C26.4125 50.0863 25.6423 49.7443 25.0967 49.1856C24.7077 49.5668 24.2273 49.833 23.6451 49.9427L23.6503 49.9453Z" fill="#231F20"/>
</g>
<defs>
<clipPath id="clip0_4053_348">
<rect width="223.476" height="51.1698" fill="white"/>
</clipPath>
</defs>
</svg>
