<svg width="27" height="18" viewBox="0 0 27 18" fill="none" xmlns="http://www.w3.org/2000/svg">
<path d="M14.9491 9.8723C14.7253 10.1522 14.3398 10.4003 14.0076 10.5297C13.5803 10.6961 13.225 10.6063 12.8247 10.4304C12.6108 10.3365 12.4153 10.222 12.2384 10.0688C12.0169 9.87707 11.8225 9.65451 11.6054 9.45759C10.773 8.70264 9.93692 7.9471 9.12064 7.17426C8.85582 6.92352 8.61026 6.65283 8.34411 6.40366C6.59839 4.76954 4.81501 3.17673 3.08873 1.52115C2.89689 1.33715 1.63568 0.190396 1.6055 0.112673L1.62895 0.0709476C1.74624 0.0381654 1.90638 0.0191223 2.02944 0.0162165C3.08289 -0.00889202 4.14549 0.00264655 5.19906 0.00264655L11.1691 0.00259015L20.0719 0.00165903C21.6151 0.00154618 23.1622 -0.00231849 24.7056 0.00651181C24.8538 0.00735817 25.203 0.0144109 25.3105 0.109908L25.3136 0.168053C25.1647 0.414455 24.6169 0.828464 24.3927 1.04505C24.0721 1.35478 23.7537 1.68379 23.4249 1.9821C23.2477 1.98317 23.3025 2.05748 23.1208 2.09221L23.2214 2.03181C23.079 2.09557 22.9411 2.17676 22.8099 2.27463C22.7433 2.32434 22.6904 2.44678 22.6323 2.49646C22.014 3.02487 21.4405 3.62553 20.8476 4.17941C20.8432 4.18353 20.8296 4.24486 20.828 4.25188C20.8045 4.35207 20.6 4.35291 20.5103 4.42392C20.4549 4.46773 20.4 4.64567 20.3941 4.64967C20.2279 4.76433 19.9228 4.89537 19.8526 5.09305C19.8295 5.15819 19.7908 5.22878 19.7272 5.27688L19.6138 5.24063C19.5506 5.29536 19.5422 5.28393 19.5264 5.34916L19.616 5.37283C19.5043 5.48923 19.1144 5.92914 18.9994 5.95278L18.9392 5.93399C18.7729 6.0573 18.1769 6.6036 18.0603 6.77022C17.834 7.09352 16.9905 7.54917 16.9923 7.87922C16.8599 7.89468 16.8772 7.87045 16.7778 7.97427C16.4388 8.3285 15.9179 8.68554 15.6479 9.08672C15.532 9.12675 15.4069 9.14839 15.3423 9.23576C15.3425 9.28349 15.3442 9.37247 15.301 9.40227C14.999 9.61055 14.9908 9.47012 14.9491 9.8723Z" fill="#FFFCCC"/>
<path d="M2.37988 17.385C2.17983 17.2999 1.90383 17.4023 1.82928 17.2515C1.88185 16.9775 2.41568 16.6126 2.592 16.4097C3.56976 15.2845 4.69496 14.2483 5.76258 13.2043C5.83122 13.1372 5.84383 13.0432 5.90418 12.9733C6.14127 12.7738 6.51372 12.4805 6.72669 12.261L8.06963 10.857C8.33903 10.5797 8.68482 10.1342 9.09403 10.1016C9.43534 10.2266 9.71706 10.6181 9.98316 10.8502C10.1594 11.0039 10.3524 11.1763 10.525 11.3187C10.835 11.5743 11.0736 11.9378 11.4591 12.0574C11.4826 12.0647 11.6081 12.2421 11.6366 12.2701C11.758 12.3599 12.1943 12.3339 12.2847 12.4119C12.3133 12.4767 12.3132 12.5147 12.3864 12.5366C12.7414 12.6398 13.1251 12.5715 13.4894 12.567C13.7623 12.5614 14.0998 12.6222 14.3656 12.5823C14.9518 12.4942 15.6369 12.107 16.0434 11.6739C16.3509 11.3464 16.5672 11.2172 16.9043 10.9381C17.3572 10.5632 17.5025 9.94555 18.2165 10.1934C18.409 10.4016 18.5561 10.631 18.7981 10.7238C18.8195 10.7531 18.949 10.9759 18.9571 10.9813C19.2391 11.1707 19.4835 11.4887 19.6977 11.6975C19.834 11.8305 19.8596 11.7619 19.9625 11.9944C20.1007 12.196 20.3182 12.421 20.5336 12.5417C20.8337 12.7098 20.9783 13.0385 21.2199 13.2449C21.6816 13.6396 22.0755 14.062 22.4876 14.5084C22.5907 14.6201 22.8365 14.7924 22.9546 14.9084C23.0846 15.2244 23.317 15.2957 23.5436 15.5059C23.831 15.7726 24.0784 16.1146 24.3504 16.397C24.5321 16.5855 24.9466 16.8242 25.0169 17.0995C25.0986 17.1751 25.1176 17.1836 25.2176 17.2322L25.2211 17.2674C24.9551 17.3681 24.7944 17.301 24.5715 17.3846C24.4237 17.4072 23.8938 17.3969 23.7184 17.3964L22.0691 17.3921L16.3495 17.3909L6.80298 17.3905C5.90598 17.3876 5.00899 17.3892 4.112 17.3956C3.58929 17.3991 2.88845 17.4246 2.37988 17.385Z" fill="#FFFCCC"/>
<path d="M0.0728599 1.34521C0.161617 1.34725 0.216049 1.33988 0.289157 1.39238C0.301401 1.46557 0.289944 1.45341 0.238204 1.52935C1.38222 2.52405 2.44343 3.50999 3.54837 4.54734L6.64902 7.40416C6.90682 7.63919 7.48409 8.15248 7.50009 8.48693C7.46759 8.56547 7.40019 8.65406 7.33962 8.7126C6.17568 9.83737 5.03009 10.9812 3.89284 12.1329C3.5631 12.5187 0.341002 15.7169 0.129473 15.8287L0.0889011 15.7938C-0.0421173 15.4553 0.00990533 14.0971 0.0115839 13.6716L0.0132484 11.033L0.00593875 2.41901C0.00541401 2.16719 -0.00415267 1.91002 0.0442362 1.66169C0.0657872 1.5511 0.0813263 1.48509 0.0745753 1.37077L0.0728599 1.34521Z" fill="#FFFCCC"/>
<path d="M0.178233 1.69043L0.246029 1.73517C0.236815 1.7993 0.24415 1.80962 0.26354 1.87355C0.344096 1.99015 0.500909 2.0088 0.609544 2.0916C0.747186 2.19652 0.883269 2.34018 1.01659 2.45548C1.2339 2.64337 1.4067 2.86889 1.61406 3.06511C1.74276 3.1869 1.91219 3.26205 2.03914 3.38447C2.23386 3.57216 3.16897 4.54056 3.33057 4.6004C3.49668 4.6619 3.48951 4.82161 3.60366 4.92785C3.73786 5.05274 3.90307 5.14398 4.0408 5.26529C4.14645 5.35831 4.23411 5.4836 4.33753 5.58293C4.61796 5.85238 4.93805 6.10197 5.18329 6.4035C5.2334 6.39117 5.21785 6.39478 5.25783 6.3453C5.53256 6.96957 6.63631 7.4769 7.00056 8.10481C7.00874 8.11895 7.14489 8.19182 7.15166 8.2055C7.18351 8.26994 7.19118 8.34182 7.24659 8.39068L7.30728 8.33034C7.34218 8.58162 6.26519 9.52771 6.04468 9.73899C5.53222 10.23 5.0487 10.7551 4.52362 11.232C4.49357 11.2592 4.46996 11.4439 4.42888 11.4802C4.38614 11.5203 4.26869 11.5122 4.20987 11.538C4.15136 11.6317 4.05087 11.7784 3.94897 11.8323C3.93983 11.8365 3.44942 12.3478 3.39328 12.4057C2.64479 13.1773 1.84992 13.912 1.09844 14.6788C0.868915 14.913 0.408529 15.2559 0.268799 15.4314L0.219795 15.3893C0.148408 15.4795 0.232862 15.53 0.16481 15.6732L0.135481 15.6777C0.123872 15.5435 0.0514493 15.2378 0.0532746 15.1268C0.0625027 14.5657 0.0602542 14.0002 0.0603106 13.4394L0.0603388 9.63683L0.0585586 4.96266C0.0575966 4.13431 -0.0367127 2.41697 0.178233 1.69043Z" fill="#FFFCCC"/>
<path d="M26.7082 1.34241C26.7917 1.34258 26.8352 1.33361 26.9039 1.37892C26.9067 1.5033 26.9386 1.57022 26.9544 1.69145C26.9771 1.86492 26.9895 2.0555 26.9897 2.23032C26.9922 4.70797 26.9908 7.18881 26.9905 9.66617L26.9903 13.253C26.9906 13.9893 27.0386 15.027 26.918 15.7613C26.9114 15.8014 26.8879 15.8041 26.8542 15.8168C26.7347 15.7884 23.6652 12.705 23.3028 12.343C22.9189 11.7957 19.522 8.69806 19.5123 8.48483C19.5059 8.34422 19.6004 8.19129 19.6879 8.08896C20.1054 7.60078 20.6256 7.25175 21.0801 6.81046C21.2658 6.63021 21.436 6.43431 21.6228 6.25564C21.7918 6.09393 21.9795 5.95189 22.1495 5.79074L25.7866 2.36619C26.0764 2.09347 26.3842 1.88129 26.7117 1.56328C26.7173 1.47676 26.714 1.42812 26.7082 1.34241Z" fill="#FFFCCC"/>
<path d="M2.37988 17.3849C2.14984 17.3903 1.74622 17.4369 1.58189 17.2878C1.56514 17.2253 1.55091 17.1765 1.59994 17.1113C1.84057 16.7956 2.19627 16.5783 2.47103 16.294C2.65962 16.0989 2.82198 15.8769 3.01176 15.6822C3.50527 15.1757 4.04477 14.689 4.54059 14.1877C5.24233 13.4782 5.91541 12.7414 6.66816 12.0827C6.85055 11.9184 7.01468 11.6771 7.19436 11.5053C7.6255 11.0786 8.05361 10.6474 8.48175 10.2179C8.63449 10.0647 8.84727 9.90066 9.04221 9.80945C9.20821 9.78259 9.83575 10.3976 9.95827 10.5177C11.1954 11.7308 12.2657 12.7852 14.157 12.4469C15.1204 12.3176 15.6423 11.7789 16.3393 11.1623C16.5648 10.9628 16.7926 10.8127 17.0316 10.5736C17.2434 10.3618 17.5489 9.97598 17.8082 9.84113C17.9317 9.77686 18.1384 9.9186 18.245 10.0045C18.9986 10.6113 19.6838 11.4297 20.3681 12.106L24.4763 16.2101C24.7244 16.4608 24.9911 16.6912 25.2409 16.938C25.8103 17.5004 24.8732 17.3943 24.5715 17.3845C24.7944 17.3009 24.9551 17.368 25.2211 17.2673L25.2176 17.2321C25.1176 17.1835 25.0986 17.175 25.0169 17.0994C24.9466 16.8241 24.5321 16.5854 24.3504 16.3969C24.0784 16.1145 23.831 15.7725 23.5436 15.5058C23.317 15.2956 23.0846 15.2243 22.9546 14.9083C22.8365 14.7923 22.5907 14.62 22.4876 14.5083C22.0755 14.0619 21.6816 13.6395 21.2199 13.2448C20.9783 13.0384 20.8337 12.7097 20.5336 12.5416C20.3182 12.4209 20.1007 12.1959 19.9625 11.9943C19.8596 11.7618 19.834 11.8304 19.6977 11.6974C19.4835 11.4886 19.2391 11.1706 18.9571 10.9812C18.949 10.9758 18.8195 10.753 18.7981 10.7237C18.5561 10.6309 18.409 10.4015 18.2165 10.1933C17.5025 9.94546 17.3572 10.5632 16.9043 10.938C16.5672 11.2171 16.3509 11.3463 16.0434 11.6738C15.6369 12.1069 14.9518 12.4941 14.3656 12.5822C14.0998 12.6221 13.7623 12.5613 13.4894 12.5669C13.1251 12.5714 12.7414 12.6397 12.3864 12.5365C12.3132 12.5146 12.3133 12.4767 12.2847 12.4118C12.1943 12.3338 11.758 12.3599 11.6366 12.27C11.6081 12.242 11.4826 12.0646 11.4591 12.0573C11.0736 11.9377 10.835 11.5742 10.525 11.3186C10.3524 11.1762 10.1594 11.0038 9.98316 10.8501C9.71706 10.618 9.43534 10.2265 9.09403 10.1015C8.68482 10.1341 8.33903 10.5796 8.06963 10.8569L6.7267 12.2609C6.51372 12.4804 6.14127 12.7737 5.90418 12.9732C5.84384 13.0431 5.83122 13.1371 5.76259 13.2042C4.69497 14.2482 3.56977 15.2844 2.592 16.4096C2.41568 16.6125 1.88185 16.9774 1.82929 17.2514C1.90383 17.4022 2.17983 17.2998 2.37988 17.3849Z" fill="#FFFCCC"/>
<path d="M14.9491 9.87214C14.9908 9.46995 14.9989 9.61039 15.301 9.4021C15.3442 9.37231 15.3425 9.28333 15.3423 9.23559C15.4069 9.14822 15.532 9.12658 15.6478 9.08655C15.9178 8.68538 16.4388 8.32833 16.7778 7.9741C16.8772 7.87028 16.8599 7.89451 16.9923 7.87905C16.9905 7.549 17.834 7.09335 18.0603 6.77005C18.1768 6.60343 18.7729 6.05713 18.9392 5.93382L18.9994 5.95261C19.1144 5.92897 19.5043 5.48906 19.616 5.37266L19.5264 5.34899C19.5422 5.28376 19.5506 5.29519 19.6138 5.24046L19.7272 5.27671C19.7908 5.22861 19.8295 5.15802 19.8526 5.09288C19.9228 4.8952 20.2278 4.76416 20.3941 4.6495C20.3999 4.6455 20.4549 4.46757 20.5103 4.42375C20.6 4.35274 20.8045 4.3519 20.828 4.25172C20.8296 4.24469 20.8431 4.18336 20.8476 4.17924C21.4405 3.62536 22.014 3.0247 22.6322 2.49629C22.6904 2.44661 22.7433 2.32417 22.8099 2.27446C22.9411 2.17659 23.079 2.0954 23.2214 2.03164L23.1208 2.09204C23.3025 2.05732 23.2477 1.98301 23.4249 1.98193C23.0547 2.37419 22.4249 2.9173 22.0135 3.29305L19.6399 5.49411L16.2475 8.66475L15.3265 9.51856C15.2417 9.59701 15.0252 9.81312 14.9491 9.87214Z" fill="#FFFCCC"/>
</svg>
