<svg width="25" height="25" viewBox="0 0 25 25" fill="none" xmlns="http://www.w3.org/2000/svg">
<path d="M0.496723 10.5779L0.512553 10.567C0.612243 10.4971 0.904043 10.1921 0.937362 10.0364C1.21555 9.87448 1.64249 9.35138 1.88239 9.10368C1.98927 8.99329 2.20373 8.86878 2.31095 8.75428C2.43383 8.62305 2.57815 8.38437 2.70515 8.26325C2.83008 8.14408 3.05162 8.01964 3.1662 7.89052C3.33144 7.70429 3.75178 7.19664 3.96627 7.09282C4.65166 6.76105 5.96897 6.99372 6.68122 7.04615C6.7444 7.10415 6.75293 7.11927 6.79647 7.1899C7.22687 7.4109 7.18575 7.43136 7.5263 7.74645C7.97075 8.15769 8.39765 8.56945 8.81765 9.00665C8.9395 9.12764 9.01116 9.24318 9.10736 9.34503C9.37098 9.62418 9.81162 9.92349 10.0072 10.2528C10.3609 10.3959 10.3941 10.7607 10.8049 10.9202C10.833 10.9096 10.8511 10.9028 10.8785 10.8904C10.8918 10.9617 10.891 11.046 10.9543 11.0888C11.0798 11.1735 11.2969 11.1811 11.4453 11.2132C11.4491 11.214 11.4679 11.2842 11.4713 11.3004L11.4765 11.3259C11.844 11.5349 12.5646 11.5111 12.9645 11.4252C13.7955 11.2467 14.2658 10.5896 14.8216 10.0152C14.9841 9.84728 15.1921 9.71683 15.3495 9.54092C16.1764 8.76138 17.0278 7.61323 18.0656 7.11867C18.4503 6.93538 20.2614 6.84608 20.6994 7.08574C20.9376 7.21606 21.6814 8.18782 22.0091 8.32888C22.0277 8.33686 22.2769 8.73338 22.3161 8.77829C22.3969 8.87895 22.519 8.75897 22.5701 8.91564C22.6607 9.1936 23.0711 9.30022 23.1581 9.57131C23.2124 9.74009 23.5832 9.89248 23.6718 10.0396C23.8062 10.2628 23.6962 10.2911 23.9911 10.3469C23.9926 10.5602 23.9593 10.4322 24.0641 10.6332C24.1257 10.7513 24.2455 10.9117 24.2924 11.0231C24.3556 11.1731 24.3313 11.3878 24.4079 11.5495C24.4372 11.5635 24.4576 11.5824 24.481 11.6045L24.5072 11.7245C24.4988 12.067 24.5232 12.3034 24.5723 12.6408C24.5838 12.72 24.5548 12.8121 24.5701 12.9167C24.5077 13.2853 24.3529 13.6952 24.1942 14.0351C24.0443 14.0958 23.9125 14.3057 23.8029 14.4241C23.7519 14.4793 23.619 14.497 23.5652 14.5579C23.3657 14.7804 23.1739 15.0147 22.9571 15.2206C22.9311 15.3126 22.9424 15.4199 22.851 15.4536L22.8753 15.3729L22.8521 15.355C22.4254 15.6639 22.089 16.1676 21.6861 16.5052C21.5586 16.6121 21.2644 16.8718 21.1764 17.002C21.1709 17.0506 21.1652 17.0962 21.1628 17.1453L21.1003 17.114C20.8904 17.2674 20.8153 17.4041 20.563 17.5046C20.5137 17.5242 20.4721 17.556 20.4421 17.601L20.4364 17.6868C20.2176 17.6845 19.9643 17.6139 19.8023 17.6304C19.7458 17.7032 19.8684 17.6493 19.724 17.7178L19.7725 17.7234L19.7833 17.6935C19.8823 17.7654 19.9965 17.6937 20.0537 17.7432C19.643 17.7947 18.7745 17.6982 18.3887 17.6062L18.3714 17.5857L18.5169 17.5446C18.3318 17.4955 17.995 17.5216 17.9266 17.4691C17.505 17.1455 16.9893 16.6063 16.5825 16.2825L16.5764 16.1836C16.4129 16.0445 16.2402 15.981 16.1047 15.7914C16.0556 15.7227 15.9544 15.6433 15.9011 15.5728C15.645 15.2847 15.3769 15.0113 15.0854 14.759C15.06 14.7375 15.0294 14.6401 15.0203 14.6061L15.0172 14.5944C14.9899 14.5712 14.9666 14.5562 14.932 14.5464C14.7487 14.495 14.0019 13.6382 13.7026 13.4448C13.5588 13.3518 13.357 13.3426 13.191 13.3081C13.0628 13.2815 12.9419 13.2323 12.8142 13.2075C12.5263 13.1513 11.8905 13.0894 11.6123 13.1531L11.5875 13.1783L11.6119 13.2076L11.7613 13.2111L11.7508 13.2427C11.5998 13.3066 11.479 13.2032 11.261 13.3149C10.8721 13.5126 10.5299 13.8083 10.2099 14.102C10.1558 14.1517 10.1415 14.2536 10.0964 14.2874C9.73176 14.5608 9.45108 14.9447 9.11371 15.2403C8.99833 15.4782 8.24423 16.0541 8.08899 16.2738C8.08095 16.2852 8.06558 16.356 8.0431 16.3739C7.75632 16.6034 7.48754 16.896 7.19715 17.1147C7.09437 17.1921 6.90675 17.2917 6.79844 17.3489C6.68988 17.614 6.50166 17.4469 6.27874 17.508C6.18143 17.5347 6.08819 17.5498 5.9902 17.5804L6.05287 17.6223C5.92481 17.6639 5.31879 17.6141 5.16946 17.6524L5.21126 17.7206C5.28373 17.7236 5.35613 17.7277 5.42847 17.733L5.40965 17.7491C4.70878 17.7566 4.28349 17.8263 3.78012 17.2605C3.48064 16.9239 3.12785 16.6387 2.82761 16.3192C2.29064 15.7478 1.71079 15.2156 1.18855 14.6301C1.11038 14.5376 0.855742 14.2647 0.771132 14.1867C0.61626 14.044 0.392584 13.308 0.332482 13.2624L0.295671 13.2799C0.288797 13.0049 0.267009 12.7304 0.260754 12.45C0.253333 12.1172 0.28065 11.6784 0.248588 11.3586L0.247803 11.218C0.294724 10.9938 0.400329 10.7847 0.496723 10.5779Z" fill="#FFFCCC"/>
<path d="M11.6776 24.4931C11.6508 24.4902 11.6239 24.4871 11.5972 24.4836C11.278 24.4419 10.5127 24.1337 10.2729 23.9266C9.46368 23.2279 8.65512 22.3449 7.90204 21.5968C7.16155 20.8612 6.42905 20.2221 5.79829 19.3989C5.7419 19.3894 5.72157 19.3885 5.66424 19.3879C5.43985 19.1507 5.67637 19.1082 5.87922 19.0981C8.14541 18.9849 9.37806 16.84 10.9496 15.509C11.2374 15.2652 11.6146 14.6978 11.9917 14.5839C12.9222 14.3142 13.3064 15.0961 13.8579 15.5902C15.2606 16.847 16.5441 18.7818 18.5147 19.0684L18.5317 19.0823C18.6475 19.1755 18.7218 19.1777 18.8682 19.2057C18.763 19.227 18.6698 19.2025 18.5928 19.2563C18.5798 19.3207 18.5847 19.3289 18.6152 19.3878L18.6849 19.4371C18.6391 19.567 18.4859 19.603 18.4683 19.7542C18.4463 19.8881 18.322 19.9098 18.23 20.0039C18.1172 20.1192 18.0069 20.3035 17.8855 20.3987C17.8169 20.4525 17.732 20.4288 17.6359 20.5345C17.636 20.6874 17.6478 20.663 17.5662 20.7648C17.4278 20.8249 17.4122 20.7737 17.3332 20.8502C17.3323 20.9215 17.337 20.9486 17.3075 21.0143C17.292 20.9943 17.277 20.974 17.2624 20.9533C17.0621 21.1577 16.825 21.3199 16.6331 21.5426C16.3107 21.9168 15.9317 22.2326 15.5857 22.583C15.5794 22.5893 15.5608 22.7071 15.5585 22.7248L15.4878 22.7125C15.3547 22.8242 15.2115 23.0132 15.044 23.1156C14.9392 23.1796 14.8537 23.3266 14.756 23.4031C14.6204 23.5376 14.3299 23.7272 14.2229 23.8597C14.2646 23.8873 14.2639 23.8848 14.3113 23.8871L14.323 23.9061C13.9403 24.0404 13.3928 24.3297 13.0099 24.3166C12.9077 24.3132 12.6145 24.2739 12.5521 24.3468C12.7145 24.432 13.0388 24.3156 13.1602 24.4033C13.0801 24.4033 13.0976 24.4125 13.031 24.43C12.6758 24.5233 12.0102 24.4437 11.6776 24.4931Z" fill="#FFFCCC"/>
<path d="M6.25661 4.60522C6.4403 4.36203 6.67467 4.16725 6.8923 3.95496L7.88261 2.97721C8.68574 2.17781 9.54628 1.17517 10.4594 0.492045C10.7326 0.287619 11.4247 0.102219 11.7752 0.0456949C12.672 -0.0988929 13.6874 0.0999809 14.4295 0.637571C15.0306 1.08505 15.5211 1.63049 16.0297 2.17011C16.5872 2.76153 17.2272 3.29651 17.7692 3.90585C17.9235 4.07224 18.395 4.48633 18.5072 4.64111C18.3033 5.04651 18.7411 4.91464 18.6296 5.20564C18.5873 5.31595 18.418 5.33034 18.3263 5.41214C18.3711 5.44699 18.3743 5.44956 18.4271 5.46932C18.1713 5.46823 17.8995 5.39765 17.6861 5.51343L17.7033 5.53344L17.8398 5.5434L17.831 5.57231C17.7426 5.58185 17.6263 5.5818 17.5429 5.61286C17.4035 5.66485 17.3376 5.7735 17.1721 5.77687C17.0018 5.78032 15.9941 6.56546 15.8582 6.70431C15.7864 6.77767 15.7709 6.88774 15.6977 6.95982C15.5897 7.06613 15.4498 7.13842 15.3404 7.24403C15.1142 7.46241 14.6929 7.99801 14.4495 8.12794C14.4074 8.1616 14.3875 8.20482 14.3515 8.23861C13.8237 8.73345 13.3104 9.37914 12.7113 9.77239C12.6205 9.83195 12.3293 9.81325 12.2112 9.82181C12.2778 9.8578 12.477 9.83991 12.584 9.84611L12.5547 9.87611C12.4462 9.87751 12.1134 9.89864 12.032 9.83843C11.7449 9.62615 11.5076 9.34494 11.241 9.10717C11.241 9.10717 11.2196 9.01011 11.2179 9.00234C11.0476 8.8529 10.8339 8.72072 10.6617 8.56841C10.6168 8.53693 10.5523 8.34619 10.5189 8.33437C10.2194 8.22834 10.0406 7.86603 9.79461 7.65652C9.70681 7.58174 9.50243 7.37946 9.45211 7.28526C9.44225 7.16223 8.94532 6.90187 8.92502 6.84265C8.78671 6.43898 8.64127 6.68406 8.46062 6.32276C8.2639 6.18614 8.03028 6.0072 7.80516 5.93361C7.7248 5.90732 7.63582 5.91258 7.55295 5.88844L7.58235 5.84849L7.57563 5.90034L7.56863 5.86355C7.59212 5.83796 7.6082 5.81021 7.62747 5.78104C7.57913 5.72602 6.67086 5.5398 6.48586 5.45366C6.37013 5.25172 6.36007 5.33057 6.15134 5.2798C6.10641 5.26886 6.04221 5.23009 5.9869 5.21264L5.95514 5.26248L5.96242 5.27034L5.97907 5.21205L5.96382 5.27158L6.11794 5.40201L6.11247 5.42721L6.11289 5.39589L6.08429 5.42228L6.09801 5.38139L6.05914 5.41549C6.00995 5.39498 5.96242 5.37709 5.91017 5.36638C5.81211 5.13356 6.26232 4.91902 6.25661 4.60522Z" fill="#FFFCCC"/>
<path d="M0.496704 10.5779C0.753909 9.91542 1.71287 9.13484 2.22922 8.63842C2.34396 8.53618 2.5202 8.28376 2.62882 8.20195C3.05084 7.88411 3.72288 6.91691 4.21183 6.7638C5.01854 6.61608 6.03844 6.70582 6.78281 7.01399C7.62969 7.36458 8.02212 8.07394 8.65654 8.60897C9.96531 9.71268 11.1463 11.9391 13.1598 11.1799C13.8323 10.9263 14.1786 10.48 14.6536 9.98341C15.346 9.33649 15.9829 8.67993 16.6441 8.01C17.0974 7.55066 17.5854 7.08175 18.2068 6.89887C18.8564 6.68446 19.9064 6.60783 20.5649 6.80863C20.9064 6.91276 21.34 7.48503 21.5942 7.72882C22.3698 8.49799 23.157 9.25059 23.8972 10.0543C24.2182 10.4035 24.327 10.8303 24.4865 11.2589C24.4762 11.4347 24.5164 11.5452 24.5071 11.7246L24.4809 11.6045C24.4576 11.5824 24.4371 11.5635 24.4078 11.5496C24.3313 11.3878 24.3556 11.1731 24.2924 11.0231C24.2455 10.9117 24.1257 10.7513 24.0641 10.6332C23.9593 10.4322 23.9926 10.5602 23.9911 10.347C23.6962 10.2911 23.8062 10.2628 23.6718 10.0396C23.5832 9.8925 23.2124 9.74011 23.1581 9.57134C23.071 9.30024 22.6607 9.19362 22.5701 8.91566C22.519 8.75899 22.3969 8.87897 22.3161 8.77831C22.2768 8.7334 22.0276 8.33689 22.0091 8.3289C21.6814 8.18784 20.9376 7.21609 20.6994 7.08577C20.2613 6.8461 18.4503 6.9354 18.0656 7.1187C17.0278 7.61325 16.1764 8.7614 15.3495 9.54095C15.1921 9.71685 14.9841 9.8473 14.8216 10.0152C14.2658 10.5897 13.7955 11.2468 12.9644 11.4253C12.5646 11.5111 11.844 11.5349 11.4765 11.326L11.4713 11.3005C11.4679 11.2842 11.449 11.214 11.4453 11.2132C11.2968 11.1811 11.0798 11.1736 10.9543 11.0888C10.891 11.046 10.8917 10.9618 10.8785 10.8904C10.8511 10.9029 10.833 10.9096 10.8049 10.9202C10.3941 10.7607 10.3609 10.396 10.0072 10.2528C9.8116 9.92351 9.37096 9.62421 9.10734 9.34505C9.01114 9.2432 8.93948 9.12766 8.81763 9.00667C8.39763 8.56947 7.97073 8.15772 7.52628 7.74647C7.18573 7.43138 7.22685 7.41092 6.79645 7.18992C6.75292 7.11929 6.74439 7.10418 6.6812 7.04617C5.96895 6.99374 4.65164 6.76108 3.96625 7.09284C3.75176 7.19667 3.33142 7.70431 3.16618 7.89054C3.0516 8.01967 2.83006 8.1441 2.70513 8.26327C2.57813 8.38439 2.43381 8.62307 2.31093 8.7543C2.20371 8.8688 1.98925 8.99332 1.88237 9.1037C1.64247 9.3514 1.21553 9.8745 0.937343 10.0365C0.904024 10.1921 0.612224 10.4971 0.512534 10.5671L0.496704 10.5779Z" fill="#FFFCCC"/>
<path d="M9.11371 15.2402C9.45107 14.9446 9.73176 14.5607 10.0963 14.2873C10.1415 14.2535 10.1558 14.1515 10.2099 14.1019C10.5299 13.8081 10.872 13.5124 11.261 13.3147C11.479 13.2031 11.5998 13.3064 11.7508 13.2426L11.7613 13.211L11.6119 13.2075L11.5875 13.1782L11.6122 13.1529C11.8905 13.0892 12.5263 13.1512 12.8142 13.2073C12.9419 13.2322 13.0628 13.2813 13.191 13.308C13.3569 13.3424 13.5588 13.3517 13.7026 13.4446C14.0019 13.6381 14.7487 14.4948 14.932 14.5463C14.9666 14.556 14.9899 14.571 15.0172 14.5943L15.0203 14.606C15.0294 14.6399 15.06 14.7374 15.0854 14.7588C15.3769 15.0111 15.645 15.2846 15.9011 15.5727C15.9544 15.6432 16.0556 15.7226 16.1047 15.7912C16.2402 15.9809 16.4129 16.0444 16.5764 16.1834L16.5825 16.2824C16.9893 16.6061 17.505 17.1454 17.9266 17.4689C17.995 17.5215 18.3318 17.4953 18.5169 17.5445L18.3714 17.5856L18.3887 17.6061C18.7744 17.6981 19.643 17.7946 20.0537 17.7431C19.9965 17.6935 19.8822 17.7652 19.7833 17.6934L19.7725 17.7233L19.7239 17.7176C19.8684 17.6492 19.7458 17.703 19.8023 17.6303C19.9643 17.6137 20.2176 17.6844 20.4364 17.6867L20.4421 17.6009C20.4721 17.5559 20.5137 17.5241 20.563 17.5044C20.8153 17.4039 20.8903 17.2672 21.1003 17.1139L21.1628 17.1451C21.1652 17.0961 21.1708 17.0505 21.1764 17.0019C21.2644 16.8717 21.5586 16.612 21.6861 16.5051C22.089 16.1675 22.4254 15.6638 22.8521 15.3548L22.8753 15.3727L22.851 15.4534C22.9424 15.4198 22.9311 15.3125 22.9571 15.2205C23.1739 15.0146 23.3657 14.7803 23.5652 14.5578C23.619 14.4969 23.7519 14.4792 23.8029 14.424C23.9125 14.3055 24.0443 14.0957 24.1942 14.0349C24.0297 14.4565 22.0323 16.3969 21.5921 16.8072C21.3547 17.0284 20.828 17.704 20.5371 17.786C19.9053 17.9643 18.5232 17.8145 17.9531 17.5507C17.1306 17.1702 16.1857 16.0812 15.5486 15.4242C15.2498 15.122 14.947 14.8239 14.6401 14.5299C13.913 13.8261 13.5035 13.2824 12.3991 13.253C11.097 13.2184 10.1793 14.3578 9.34147 15.2465C9.26794 15.2769 9.19585 15.2539 9.11371 15.2402Z" fill="#FFFCCC"/>
<path d="M0.222925 11.7065C0.224058 11.5679 0.228811 11.4954 0.248569 11.3584C0.280631 11.6783 0.253314 12.117 0.260735 12.4498C0.266989 12.7302 0.288778 13.0047 0.295651 13.2797L0.332463 13.2622C0.392565 13.3078 0.61624 14.0438 0.771113 14.1866C0.855723 14.2645 1.11036 14.5375 1.18853 14.6299C1.71077 15.2154 2.29063 15.7476 2.82759 16.319C3.12783 16.6385 3.48062 16.9238 3.7801 17.2603C4.28347 17.8261 4.70876 17.7564 5.40963 17.7489L5.42845 17.7328C5.35611 17.7275 5.28371 17.7234 5.21124 17.7204L5.16944 17.6522C5.31877 17.6139 5.92479 17.6637 6.05285 17.6221L5.99018 17.5802C6.08817 17.5496 6.18141 17.5345 6.27872 17.5078C6.50164 17.4467 6.68986 17.6139 6.79842 17.3488C6.90673 17.2915 7.09435 17.1919 7.19713 17.1145C7.48752 16.8958 7.7563 16.6033 8.04308 16.3738C8.06556 16.3558 8.08093 16.285 8.08897 16.2737C8.24421 16.0539 8.99831 15.478 9.11369 15.2401C9.19584 15.2539 9.26792 15.2769 9.34146 15.2465C8.03763 16.5043 7.13477 17.9699 5.15635 17.8658C4.91521 17.8531 4.28222 17.8509 4.07995 17.7095C3.41004 17.241 2.85319 16.5317 2.26394 15.9623C1.76955 15.4807 0.959971 14.7537 0.579385 14.1847C0.17764 13.5841 0.0141457 12.5042 0.0138397 11.7765L0.0684337 11.5804C0.136392 11.7094 0.130827 11.8006 0.120424 11.9459C0.134156 12.0956 0.131463 12.2915 0.1332 12.4442C0.237039 12.2169 0.235791 11.953 0.222925 11.7065Z" fill="#FFFCCC"/>
<path d="M6.25661 4.60547C6.26232 4.91927 5.81211 5.13381 5.91017 5.36663C5.96242 5.37734 6.00995 5.39523 6.05914 5.41574L6.09801 5.38164L6.08429 5.42253L6.11289 5.39614L6.11247 5.42746L6.11794 5.40226L5.96382 5.27183L5.97907 5.2123L5.96242 5.27059L5.95513 5.26273L5.9869 5.21289C6.04221 5.23034 6.10641 5.26911 6.15134 5.28005C6.36007 5.33082 6.37013 5.25197 6.48585 5.45391C6.67086 5.54004 7.57913 5.72627 7.62747 5.78129C7.6082 5.81046 7.59212 5.83821 7.56863 5.8638L7.57563 5.90059L7.58235 5.84873L7.55295 5.88869C7.63582 5.91283 7.7248 5.90757 7.80516 5.93386C8.03028 6.00745 8.2639 6.18639 8.46062 6.32301C8.64127 6.68431 8.78671 6.43923 8.92502 6.8429C8.94532 6.90212 9.44225 7.16248 9.45211 7.28551C9.50243 7.37971 9.70681 7.58199 9.79461 7.65677C10.0406 7.86628 10.2194 8.22859 10.5189 8.33462C10.5523 8.34644 10.6168 8.53718 10.6617 8.56866C10.8339 8.72097 11.0476 8.85315 11.2179 9.00259C11.2196 9.01036 11.241 9.10742 11.241 9.10742C11.5076 9.34519 11.7449 9.6264 12.032 9.83868C12.1134 9.89889 12.4462 9.87776 12.5547 9.87636L12.584 9.84636C12.477 9.84016 12.2778 9.85805 12.2112 9.82206C12.3293 9.8135 12.6205 9.8322 12.7113 9.77264C13.3104 9.37939 13.8237 8.7337 14.3515 8.23886C14.3875 8.20507 14.4074 8.16185 14.4495 8.12819C14.4893 8.16423 14.5296 8.19973 14.5703 8.23468C14.2376 8.60078 13.1282 9.77425 12.7172 9.94375C12.3792 10.0831 12.0063 9.96405 11.7116 9.77847C11.4184 9.59388 11.1948 9.29071 10.9475 9.05113C10.2941 8.41798 9.66177 7.76443 9.00501 7.13535C8.63451 6.78051 8.28646 6.41713 7.85492 6.13424C7.36078 5.81031 6.86136 5.6247 6.27966 5.53968C6.05953 5.50753 5.8057 5.49236 5.60089 5.40461L5.59088 5.36243C5.66029 5.18764 6.09401 4.78861 6.25661 4.60547Z" fill="#FFFCCC"/>
<path d="M18.5147 19.0684C18.6887 19.081 18.9948 19.0793 19.1229 19.18C19.1757 19.332 19.0633 19.3739 18.9404 19.4027C18.9139 19.4378 18.8951 19.4662 18.881 19.5083C18.8318 19.6558 16.358 22.0458 16.0161 22.3907C15.8333 22.575 15.6666 22.7756 15.4804 22.9565C15.1675 23.2606 14.8385 23.5695 14.5062 23.8523C14.3178 24.0126 14.1072 24.1308 13.886 24.2396C13.2343 24.5603 12.3869 24.6412 11.6776 24.493C12.0102 24.4437 12.6758 24.5233 13.031 24.4299C13.0975 24.4125 13.0801 24.4033 13.1602 24.4033C13.0388 24.3155 12.7145 24.4319 12.5521 24.3468C12.6145 24.2739 12.9077 24.3131 13.0099 24.3166C13.3928 24.3297 13.9403 24.0403 14.323 23.9061L14.3113 23.8871C14.2639 23.8848 14.2645 23.8873 14.2229 23.8597C14.3299 23.7272 14.6204 23.5376 14.756 23.4031C14.8537 23.3265 14.9392 23.1795 15.044 23.1155C15.2115 23.0132 15.3547 22.8242 15.4878 22.7125L15.5585 22.7248C15.5608 22.7071 15.5794 22.5893 15.5857 22.583C15.9317 22.2326 16.3107 21.9168 16.6331 21.5426C16.825 21.3198 17.0621 21.1577 17.2624 20.9533C17.277 20.9739 17.292 20.9943 17.3075 21.0143C17.337 20.9485 17.3323 20.9215 17.3332 20.8502C17.4122 20.7737 17.4278 20.8249 17.5662 20.7647C17.6478 20.6629 17.636 20.6873 17.6359 20.5345C17.732 20.4288 17.8169 20.4524 17.8855 20.3987C18.0069 20.3035 18.1172 20.1192 18.23 20.0038C18.322 19.9097 18.4463 19.8881 18.4683 19.7542C18.4859 19.6029 18.6391 19.5669 18.6849 19.4371L18.6152 19.3878C18.5847 19.3288 18.5798 19.3207 18.5928 19.2562C18.6698 19.2024 18.763 19.227 18.8682 19.2057C18.7218 19.1777 18.6475 19.1754 18.5317 19.0823L18.5147 19.0684Z" fill="#FFFCCC"/>
<path d="M18.5072 4.6416C18.632 4.77226 19.2484 5.28784 19.0745 5.44904C18.6932 5.57039 18.1795 5.53386 17.7852 5.65228C17.7038 5.67673 17.6604 5.7547 17.5726 5.79041C17.1733 5.9527 16.7208 6.18951 16.396 6.47463C15.7619 7.03129 15.1777 7.64908 14.5703 8.23493C14.5296 8.19998 14.4893 8.16448 14.4495 8.12844C14.6929 7.99851 15.1142 7.46291 15.3404 7.24453C15.4498 7.13892 15.5897 7.06663 15.6976 6.96032C15.7709 6.88823 15.7864 6.77816 15.8581 6.70481C15.9941 6.56596 17.0018 5.78081 17.1721 5.77736C17.3376 5.77399 17.4035 5.66535 17.5429 5.61336C17.6263 5.5823 17.7426 5.58235 17.8309 5.57281L17.8398 5.54389L17.7032 5.53394L17.6861 5.51392C17.8995 5.39815 18.1713 5.46872 18.4271 5.46981C18.3743 5.45006 18.3711 5.44749 18.3263 5.41264C18.418 5.33083 18.5873 5.31644 18.6296 5.20614C18.7411 4.91513 18.3033 5.04701 18.5072 4.6416Z" fill="#FFFCCC"/>
<path d="M24.4865 11.2588C24.5362 11.349 24.5719 11.5086 24.5774 11.6135C24.8366 11.9337 24.6378 12.5335 24.5701 12.9166C24.5547 12.812 24.5838 12.7199 24.5723 12.6406C24.5232 12.3033 24.4988 12.0669 24.5072 11.7244C24.5164 11.545 24.4762 11.4346 24.4865 11.2588Z" fill="#FFFCCC"/>
<path d="M0.191575 11.4471C0.201137 11.3666 0.200453 11.2775 0.247784 11.2178L0.24857 11.3583C0.228812 11.4953 0.224059 11.5678 0.222926 11.7064C0.214947 11.7964 0.207477 11.8708 0.192954 11.9601L0.159075 11.977L0.120425 11.9458C0.130828 11.8005 0.136392 11.7093 0.0684341 11.5803C0.0572482 11.518 0.055065 11.5482 0.0780331 11.487L0.0688127 11.4706L0.0878317 11.4694C0.115415 11.5343 0.143764 11.599 0.172869 11.6632L0.18879 11.6526L0.191575 11.4471Z" fill="#FFFCCC"/>
<path d="M0.222923 11.7065C0.235789 11.953 0.237037 12.217 0.133198 12.4443C0.13146 12.2916 0.134154 12.0956 0.120422 11.946L0.159072 11.9772L0.192952 11.9602C0.207475 11.871 0.214945 11.7965 0.222923 11.7065Z" fill="#FFFCCC"/>
<path d="M0.0138365 11.7765C0.00686673 11.6841 -0.0182094 11.5265 0.023547 11.4519C0.102916 11.4067 0.0786129 11.4201 0.191571 11.4472L0.188786 11.6527L0.172866 11.6633C0.14376 11.599 0.115412 11.5344 0.0878281 11.4694L0.0688091 11.4707L0.0780295 11.4871C0.0550614 11.5483 0.0572446 11.5181 0.0684305 11.5804L0.0138365 11.7765Z" fill="#FFFCCC"/>
</svg>
